<svg width="3107" height="2129" viewBox="0 0 3107 2129" fill="none" xmlns="http://www.w3.org/2000/svg">
<g clip-path="url(#clip0)">
<path d="M3358 1948.9H3357.8C3264.5 1911.6 3167.9 1873 3074.9 1831.8C2830.7 1724 2640.8 1576.3 2439.6 1419.9C2386.9 1379 2332.5 1336.6 2276.9 1295C2187.7 1228.2 2097.2 1198.3 2000.2 1203.6C1907.6 1208.6 1806.6 1244.5 1682.3 1316.4C1610.6 1357.8 1538.1 1410.5 1467.9 1461.4C1341.9 1553 1211.8 1647.5 1074.8 1687.4C950.3 1723.8 837.4 1700.6 728.2 1678C668.4 1665.8 606.7 1653.1 543.6 1650.1C443.5 1645.4 350.1 1665.4 265.7 1709.4C190.1 1748.9 120.9 1807.1 54.0998 1887.4C-1.10019 1953.8 -50.0002 2030 -95.2002 2110.9L-94.2002 2111.1C-49.1002 2030.4 -0.30019 1954.4 54.8998 1888C194.6 1719.9 354.4 1642.5 543.4 1651.3C606.4 1654.2 668.1 1666.9 727.7 1679.2C837 1701.7 950.2 1725 1074.8 1688.6C1212.1 1648.5 1342.5 1553.8 1468.4 1462.4C1538.5 1411.4 1611 1358.8 1682.5 1317.4C1932 1173.2 2104 1167 2276.1 1296C2331.7 1337.6 2386.1 1380 2438.8 1420.9C2640 1577.3 2830 1725.1 3074.1 1833C3167.3 1874.1 3263.8 1912.7 3357.2 1950H3357.4L3358 1948.9Z" fill="#CDE7F6"/>
<path d="M3354.7 1917L3340.3 1911.5C3289.1 1892.1 3236.2 1872.1 3184.6 1852C3141.4 1835.2 3103.6 1820.1 3069 1806C2839 1710.8 2659.5 1585.2 2465.3 1442.7C2403.4 1397 2337.1 1348.5 2268.3 1300.1C2162.1 1224.7 2055.6 1200.3 1933.3 1222.9C1855.4 1237.4 1769.5 1271.3 1670.5 1326.7C1597.2 1367.5 1523.2 1419.4 1451.7 1469.5L1436.3 1480.3C1313.5 1566.3 1192.5 1646.7 1062 1684.8C938.1 1721 826.2 1700.1 717.8 1680.1C658.2 1669.1 596.5 1657.6 533.6 1655.7C386.8 1651.7 259.6 1698.7 144.6 1799.6C62.4998 1871.8 -13.7002 1971.7 -92.7002 2111.4L-91.8002 2111.7C41.5998 1874.7 222.5 1648.2 533.4 1656.9C596.2 1658.7 657.8 1670.2 717.4 1681.3C825.8 1701.4 938 1722.2 1062.1 1686C1192.8 1647.8 1313.9 1567.4 1436.7 1481.3L1452.2 1470.3C1523.7 1420.3 1597.5 1368.5 1670.8 1327.7C1769.7 1272.4 1855.5 1238.5 1933.3 1224C2055.3 1201.4 2161.5 1225.9 2267.4 1301.1C2336.4 1349.5 2402.6 1398.1 2464.5 1443.7C2658.8 1586.2 2838.3 1711.9 3068.4 1807.1C3102.9 1821.2 3140.7 1836.3 3184 1853.1C3235.7 1873.2 3288.6 1893.3 3339.8 1912.6L3354.1 1918.1L3354.7 1917Z" fill="#CDE7F6"/>
<path d="M3351.4 1885.1L3307.6 1869.3C3265.6 1854.2 3222.1 1838.6 3179.7 1823.2C3134.2 1806.7 3097.2 1793 3063.3 1780.1C2822.6 1687.4 2632.2 1561.1 2457.6 1439.7C2387.5 1391 2322.7 1346.9 2259.5 1305.1C2152.8 1234.4 2045.8 1212.3 1923 1235.5C1844.6 1250.3 1758.1 1283.5 1658.7 1337C1582.2 1378.1 1505.3 1430.1 1431 1480.3L1424.1 1485C1308.8 1563.1 1184.8 1642.6 1049.3 1682.2C926.1 1718.1 815 1699.7 707.6 1682.1C648 1672.2 586.3 1662.1 523.5 1661.5C378.5 1660.1 252.6 1709 138.8 1810.9C60.0002 1881.5 -13.5998 1978.1 -90.2998 2112L-89.2998 2112.2C43.2002 1879.7 222.1 1659.8 523.2 1662.7C585.9 1663.2 647.6 1673.4 707.3 1683.2C814.8 1701 925.9 1719.3 1049.3 1683.3C1185.1 1643.8 1309.1 1564.1 1424.5 1486L1431.5 1481.3C1505.8 1431.1 1582.7 1379.1 1659.1 1338C1758.4 1284.5 1844.7 1251.4 1923 1236.6C2045.5 1213.5 2152.2 1235.6 2258.7 1306.2C2322 1347.9 2386.8 1391.9 2456.8 1440.8C2631.4 1562.2 2822 1688.5 3062.7 1781.1C3096.6 1794.1 3133.6 1807.8 3179.1 1824.3L3307 1870.5L3350.9 1886.2L3351.4 1885.1Z" fill="#CDE7F6"/>
<path d="M3348.1 1853.1L3231.6 1813.6L3174.8 1794.4L3172.6 1793.7C3134.7 1780.8 3095.4 1767.6 3057.5 1754.2C2835 1675.4 2653.7 1570.3 2450 1436.7C2389.9 1397.3 2324.8 1356 2250.8 1310.1C2144 1244 2036.6 1224.2 1912.5 1248C1833.4 1263.2 1746.6 1295.7 1646.9 1347.3C1567.5 1388.5 1488.5 1439.9 1412 1489.6C1296.4 1565.1 1171 1640.3 1036.5 1679.5C914 1715.3 804 1699.4 697.7 1684C637.9 1675.4 576.1 1666.5 513.5 1667.1C370.2 1668.6 245.7 1719.2 133 1822.2C57.4998 1891.1 -13.5002 1984.4 -87.7002 2112.5L-86.8002 2112.7C44.6998 1884.8 221.5 1671.2 513.3 1668.3C575.8 1667.7 637.6 1676.6 697.4 1685.2C803.8 1700.5 913.8 1716.5 1036.6 1680.7C1171.2 1641.4 1296.8 1566.1 1412.4 1490.6C1488.8 1440.9 1567.9 1389.5 1647.3 1348.4C1746.8 1296.8 1833.6 1264.4 1912.5 1249.1C2036.3 1225.5 2143.5 1245.2 2250.1 1311.2C2324 1357 2389.3 1398.4 2449.2 1437.7C2653 1571.3 2834.3 1676.4 3057 1755.3C3094.9 1768.7 3134.1 1782 3172.2 1794.8L3174.1 1795.5L3231 1814.8L3347.5 1854.2L3348.1 1853.1Z" fill="#CDE7F6"/>
<path d="M3344.8 1821.1C3287.1 1802.6 3228.1 1783.9 3169.8 1765.6L3145.5 1758C3114.6 1748.3 3082.7 1738.3 3051.8 1728.3C2820.9 1653.2 2641.2 1556.1 2442.3 1433.7C2374.8 1392 2306.2 1352.2 2242.1 1315.1C2135.3 1253.6 2027.3 1236.2 1902.2 1260.5C1822.1 1276.2 1734.9 1307.9 1635.2 1357.6C1552.6 1398.8 1467.9 1451.7 1399.9 1494.3C1292.9 1561.5 1164.6 1635.8 1023.7 1676.9C902.1 1712.3 793.2 1698.9 687.9 1686C628.1 1678.6 566.1 1670.9 503.4 1672.8C361.9 1677 238.8 1729.6 127.3 1833.5C53.9002 1901.7 -13.1998 1989.8 -85.2998 2113.1L-84.2998 2113.3C46.3002 1890 220.8 1682.3 503.2 1673.9C565.8 1672.1 627.8 1679.7 687.6 1687.1C793 1700.1 901.9 1713.5 1023.7 1678.1C1164.8 1636.9 1293.3 1562.6 1400.3 1495.3C1468.3 1452.7 1553 1399.8 1635.5 1358.7C1735 1309.1 1822.3 1277.3 1902.1 1261.7C2027 1237.5 2134.8 1254.8 2241.4 1316.2C2305.4 1353.2 2374 1393.1 2441.6 1434.7C2640.6 1557.2 2820.3 1654.2 3051.2 1729.4C3082.1 1739.4 3114.1 1749.5 3145.1 1759.1L3169.3 1766.7C3227.6 1785 3286.5 1803.7 3344.3 1822.3L3344.8 1821.1Z" fill="#CDE7F6"/>
<path d="M3341.6 1789.2C3276.4 1769.4 3218.6 1752.4 3164.9 1736.8L3125.3 1725.4C3099.2 1717.9 3072.2 1710.1 3046 1702.3C2792.1 1626.9 2602.1 1527.2 2434.7 1430.7C2368.7 1392.6 2299.9 1355.7 2233.3 1320.2C2126.7 1263.2 2018.1 1248.2 1891.7 1273C1810.9 1289.2 1723.2 1320.1 1623.4 1368C1544.2 1405.9 1466.7 1451.6 1387.7 1499C1290.3 1557.8 1159.5 1630.9 1010.9 1674.3C890.3 1709.4 782.6 1698.4 678.5 1687.8C618.3 1681.7 556.1 1675.4 493.4 1678.5C353.6 1685.4 232 1739.8 121.5 1844.7C51.4998 1911.2 -13.2002 1996.1 -82.7002 2113.7L-81.7002 2113.9C51.5998 1887.2 219.4 1693.2 493.1 1679.6C555.8 1676.5 618 1682.9 678.2 1689C782.3 1699.6 890.1 1710.6 1011.1 1675.3C1159.7 1632 1290.7 1558.8 1388.1 1500C1467 1452.6 1544.4 1407 1623.7 1369C1723.3 1321.3 1810.9 1290.4 1891.6 1274.2C2017.9 1249.4 2126.2 1264.4 2232.6 1321.3C2299.2 1356.9 2368 1393.6 2433.9 1431.7C2601.5 1528.2 2791.4 1628 3045.5 1703.5C3071.6 1711.3 3098.6 1719 3124.8 1726.5L3164.4 1737.9C3218.1 1753.5 3275.8 1770.7 3341 1790.3L3341.6 1789.2Z" fill="#CDE7F6"/>
<path d="M3338.2 1757.2C3268.7 1737.4 3211.9 1721.8 3160 1708L3108.1 1694.3C3085.7 1688.5 3062.6 1682.5 3040.3 1676.5C2829.3 1619.8 2646 1545.3 2427 1427.6C2368.2 1396 2309 1366.9 2246.4 1336L2224.6 1325.3C2118.1 1272.7 2009 1260.1 1881.3 1285.6C1799.5 1302.2 1711.4 1332.5 1611.7 1378.3C1530.5 1415.6 1450.2 1460.5 1375.6 1503.7C1237.3 1583.5 1117.4 1636.8 998.2 1671.5C879 1706.2 772.1 1697.9 669.3 1689.6C608.7 1684.7 546.3 1679.7 483.3 1684.1C345.4 1693.8 225.1 1750 115.7 1856C37.3999 1931.8 -27.5001 2026 -80.1001 2114.3L-79.0001 2114.5C52.8999 1892.7 218.3 1703.9 483.1 1685.3C546 1680.9 605.8 1685.7 668.9 1690.8C771.9 1699.1 878.4 1707.6 998.4 1672.7C1118.4 1637.8 1237.6 1584.5 1376 1504.7C1450.5 1461.6 1530.7 1416.6 1611.9 1379.3C1711.5 1333.6 1799.6 1303.3 1881.2 1286.8C2008.8 1261.3 2117.6 1273.9 2223.9 1326.4L2245.7 1337.1C2308.4 1367.9 2367.6 1397.1 2426.3 1428.7C2645.4 1546.4 2828.8 1620.9 3039.8 1677.6C3062.2 1683.6 3085.2 1689.7 3107.6 1695.5C3124.6 1699.9 3142.1 1704.4 3159.5 1709.1C3211.4 1723 3268.1 1738.6 3337.7 1758.4L3338.2 1757.2Z" fill="#CDE7F6"/>
<path d="M3334.9 1725.3C3262.2 1706 3206.7 1691.7 3155.1 1679.2C3134.1 1674.1 3113.1 1669.1 3092.7 1664.4L3034.4 1650.6C2814.5 1597.5 2630.6 1529.9 2419.4 1424.6C2364.8 1397.4 2309.8 1372.6 2251.6 1346.4L2215.9 1330.3C2109.6 1282.3 2000 1272.1 1870.8 1298.2C1788.3 1315.1 1699.6 1344.8 1600 1388.6C1514.9 1426 1432.7 1470 1363.5 1508.3C1231.5 1581.2 1111.4 1632.3 985.4 1668.9C867 1703.4 762 1697.3 660.4 1691.3C596.6 1687.6 536.5 1684 473.2 1689.8C216.8 1713.1 53.4001 1897.6 -77.3999 2114.9L-76.2999 2115.1C54.3001 1898.3 217.2 1714.3 473.1 1690.9C536.3 1685.2 596.4 1688.7 660.1 1692.5C761.7 1698.4 866.8 1704.6 985.5 1670C1111.5 1633.4 1231.8 1582.3 1363.9 1509.3C1433 1471.1 1515.2 1426.9 1600.1 1389.6C1699.8 1345.8 1788.3 1316.3 1870.9 1299.3C1999.7 1273.3 2109.2 1283.5 2215.3 1331.4L2251 1347.5C2309.2 1373.8 2364.1 1398.4 2418.7 1425.7C2630 1531.1 2814 1598.7 3034 1651.7C3053.3 1656.4 3073.1 1661 3092.3 1665.5C3111.5 1670 3133.7 1675.2 3154.6 1680.3C3206.3 1692.8 3261.7 1707.1 3334.4 1726.4L3334.9 1725.3Z" fill="#CDE7F6"/>
<path d="M3331.7 1693.3C3281.4 1680.9 3215.4 1664.8 3150.2 1650.4C3126 1645 3101.7 1640 3078.3 1635.1L3028.7 1624.7C2798.8 1575.6 2614.3 1514.8 2411.7 1421.6C2360 1397.7 2307.7 1376.4 2252.4 1353.9L2207.1 1335.4C2101.3 1291.7 1991.1 1283.9 1860.4 1310.8C1776.7 1328.2 1687.7 1357 1588.2 1398.9C1518.4 1428.2 1445.4 1463.4 1351.4 1513C1230.71 1576.84 1103.82 1628.21 972.7 1666.3C855.5 1700.4 751.9 1696.6 651.8 1692.9C587.5 1690.6 526.8 1688.3 463.2 1695.4C328.8 1710.5 211.5 1770.4 104.2 1878.5C34.6999 1948.5 -24.8001 2033.7 -74.6001 2115.5L-73.5001 2115.7C55.5999 1903.7 216.1 1724.4 463 1696.7C526.7 1689.5 587.2 1691.7 651.5 1694.1C751.8 1697.7 855.3 1701.6 972.8 1667.4C1104 1629.33 1230.97 1577.93 1351.7 1514C1445.7 1464.4 1518.7 1429.2 1588.4 1400C1687.9 1358.1 1776.9 1329.4 1860.4 1311.9C1990.8 1285.2 2100.9 1292.9 2206.5 1336.5C2221.8 1342.7 2236.8 1348.9 2251.9 1354.9C2307.1 1377.5 2359.3 1398.8 2411.1 1422.6C2613.7 1516 2798.3 1576.7 3028.3 1625.9L3077.8 1636.3C3101.3 1641.1 3125.5 1646.2 3149.7 1651.5C3215 1665.9 3281 1682 3331.2 1694.5L3331.7 1693.3Z" fill="#CDE7F6"/>
<path d="M3328.4 1661.4C3277.3 1649.6 3210.3 1634.4 3145.3 1621.5C3118.2 1616.1 3091.1 1611.3 3064.9 1606.5L3022.9 1598.8C2782 1553.9 2597 1500 2404.1 1418.5C2354.2 1397.5 2303.8 1379 2250.5 1359.5L2198.4 1340.4C2093 1301.2 1982.3 1295.8 1850.1 1323.2C1765.2 1341.3 1675.8 1369.3 1576.5 1409.1C1504.5 1438 1429 1472.5 1339.2 1517.7C1224.1 1575.5 1103.7 1621.8 960 1663.6C844.1 1697.3 742.2 1695.8 643.6 1694.4C578.8 1693.4 517.2 1692.5 453.1 1701.1C320.6 1718.9 204.6 1780.6 98.4 1889.7C32.7 1957.2 -23.4 2036.7 -72 2116.1L-70.7 2116.4C56.9 1909.1 214.8 1734.2 453 1702.3C517.1 1693.7 578.4 1694.6 643.4 1695.6C742.1 1697 844.1 1698.5 960 1664.7C1103.9 1622.9 1224.4 1576.5 1339.6 1518.7C1429.3 1473.6 1504.6 1439.2 1576.6 1410.3C1675.9 1370.5 1765.3 1342.4 1850 1324.4C1982.1 1297 2092.6 1302.4 2197.9 1341.5L2249.9 1360.7C2303.2 1380.1 2353.5 1398.6 2403.4 1419.6C2596.4 1501.1 2781.6 1555 3022.5 1599.9C3036.4 1602.6 3050.4 1605.1 3064.4 1607.7C3090.6 1612.5 3117.7 1617.4 3144.8 1622.7C3209.9 1635.6 3276.8 1650.8 3327.9 1662.6L3328.4 1661.4Z" fill="#CDE7F6"/>
<path d="M3325.1 1629.4C3269.9 1617.7 3204.9 1604.1 3140.3 1592.7C3110.6 1587.6 3080.9 1582.9 3052.2 1578.4L3017.2 1572.9C2760.8 1532.1 2581 1486.5 2396.5 1415.5C2348 1396.8 2298.8 1381 2247 1364.1C2228.3 1358.1 2209 1351.8 2189.7 1345.4C2084.4 1310.5 1973.1 1307.4 1839.6 1335.8C1754.7 1353.9 1664.7 1381.3 1564.7 1419.5C1490.2 1447.9 1412.6 1481.5 1327.2 1522.2C1221 1573 1107.4 1614.4 947.2 1661C833.1 1694.1 732.8 1694.9 635.9 1695.7C570.1 1696.2 507.9 1696.7 443.1 1706.8C312.5 1727.2 197.9 1790.8 92.6998 1900.9C31.0998 1965.5 -22.3002 2040.9 -69.2002 2116.7L-68.4002 2116.9C51.1998 1922.8 204.7 1745.3 442.9 1708C507.8 1697.9 569.9 1697.4 635.7 1696.9C732.7 1696.1 833 1695.3 947.3 1662C1107.5 1615.5 1221.2 1574 1327.5 1523.3C1412.9 1482.6 1490.5 1448.9 1564.9 1420.5C1664.8 1382.4 1754.7 1355 1839.5 1337C1972.9 1308.6 2084 1311.6 2189.1 1346.5C2208.4 1352.9 2227.8 1359.2 2246.4 1365.2C2298.4 1382.1 2347.3 1398 2395.8 1416.6C2580.5 1487.6 2760.3 1533.2 3016.8 1574.1L3051.8 1579.6C3080.5 1584 3110.2 1588.7 3140 1593.9C3204.5 1605.2 3269.5 1618.8 3324.7 1630.6L3325.1 1629.4Z" fill="#CDE7F6"/>
<path d="M3321.7 1597.5C3265.8 1586.5 3199.9 1573.8 3135.5 1563.9C3103.2 1559 3071.1 1554.8 3040.1 1550.8L3011.4 1547C2776.7 1515.9 2590.7 1482.5 2388.7 1412.5C2341.3 1396.1 2293.2 1382.4 2242.4 1368C2222.4 1362.3 2201.6 1356.5 2180.9 1350.4C2075 1319.4 1966.4 1318.8 1829.2 1348.4C1743.2 1367 1652.7 1393.6 1553 1429.7C1475.9 1457.7 1395.8 1490.4 1315 1527C1195.9 1580.8 1072.2 1618.2 934.4 1658.2C822.2 1690.9 723.9 1693.9 628.8 1696.8C561.9 1698.8 498.8 1700.7 432.9 1712.5C304.3 1735.6 191.1 1800.9 87.1001 1912.1C29.5001 1973.7 -21.2999 2045.1 -66.3999 2117.4L-65.4999 2117.6C52.8001 1927.5 203.7 1754.8 432.9 1713.6C498.7 1701.8 561.8 1700 628.6 1697.9C723.7 1695.1 822.1 1692.1 934.6 1659.4C1072.3 1619.4 1196.1 1581.9 1315.3 1528C1396.1 1491.5 1476.1 1458.8 1553.1 1430.9C1652.8 1394.7 1743.2 1368 1829.1 1349.6C1966.2 1320 2074.6 1320.6 2180.4 1351.6L2241.9 1369.2C2292.8 1383.6 2340.8 1397.2 2388.2 1413.6C2590.2 1483.6 2776.3 1517 3011 1548.2L3039.8 1551.9C3070.7 1556 3102.8 1560.2 3135 1565.1C3199.5 1575 3265.3 1587.6 3321.3 1598.7L3321.7 1597.5Z" fill="#CDE7F6"/>
<path d="M3318.5 1565.5C3261.8 1555.3 3195.2 1543.7 3130.5 1535.1C3095.9 1530.6 3061.6 1527 3028.6 1523.5C3020.8 1522.7 3013.2 1522 3005.7 1521.1C2786 1497.8 2587.4 1473.3 2381.1 1409.5C2334.6 1395 2287.4 1383.6 2237.4 1371.6C2216.2 1366.3 2194.2 1361.1 2172.2 1355.5C2067.2 1328.8 1958.1 1330.5 1818.7 1361C1731.4 1380 1640.6 1405.9 1541.2 1440.1C1459.9 1468.1 1379.8 1498.8 1303 1531.6C1200.1 1575.4 1095.9 1605.5 975.2 1640.2L921.7 1655.6C811.5 1687.7 715.3 1692.8 622.2 1697.6C554.1 1701.2 489.7 1704.6 422.9 1718.2C296.3 1743.8 184.6 1811 81.5 1923.4C27.6 1982.2 -20 2048.9 -63.5 2118.1L-62.3 2118.3C55 1932.2 203.5 1763.8 422.9 1719.3C489.6 1705.8 553.9 1702.4 622 1698.8C715.2 1693.9 811.5 1688.8 921.8 1656.7L975.3 1641.3C1096 1606.5 1200.3 1576.5 1303.2 1532.7C1380 1499.9 1460.1 1469.1 1541.3 1441.2C1640.7 1407 1731.4 1381.2 1818.8 1362.1C1957.9 1331.7 2066.8 1330 2171.7 1356.6C2193.8 1362.2 2215.6 1367.6 2236.9 1372.7C2286.9 1384.7 2334.1 1396.1 2380.6 1410.6C2586.9 1474.5 2785.6 1499 3005.3 1522.3L3028.2 1524.7C3061.2 1528.2 3095.6 1531.7 3130.1 1536.3C3194.8 1544.9 3261.4 1556.5 3318.1 1566.7L3318.5 1565.5Z" fill="#CDE7F6"/>
<path d="M3315.2 1533.6C3257.7 1524.1 3190.3 1513.5 3125.6 1506.3C3088.7 1502.2 3052.3 1499.3 3017 1496.6L2999.9 1495.2C2762.3 1476.2 2574.7 1461.3 2373.4 1406.5C2327.7 1393.9 2281.1 1384.6 2231.7 1374.6C2209.5 1370.1 2186.5 1365.5 2163.5 1360.5C2059.6 1338.2 1950.1 1342.1 1808.3 1373.5C1719.3 1393.2 1628.1 1418.3 1529.4 1450.4C1442.4 1478.7 1364.4 1506.7 1290.8 1536.2C1204.9 1570.7 1115.1 1595.6 1020 1621.7C984.3 1631.6 947.3 1641.8 909 1653C801.2 1684.3 707.3 1691.4 616.5 1698.1C546.8 1703.4 481 1708.4 412.9 1723.8C288.2 1752.1 177.9 1821 75.8999 1934.6C25.7999 1990.4 -19.2001 2053.3 -60.6001 2118.7L-59.6001 2118.9C57.8999 1932.9 200.6 1773.1 412.9 1725C480.9 1709.6 546.7 1704.6 616.3 1699.4C707.2 1692.5 801.2 1685.4 909.1 1654.1C947.5 1642.9 984.3 1632.8 1020 1622.9C1115.1 1596.7 1204.9 1571.9 1291 1537.4C1364.5 1507.9 1442.6 1479.8 1529.5 1451.5C1628.1 1419.5 1719.4 1394.3 1808.4 1374.6C1949.9 1343.3 2059.3 1339.3 2163 1361.7C2186.1 1366.6 2209.1 1371.3 2231.3 1375.8C2280.5 1385.7 2327.2 1395.1 2373 1407.5C2574.2 1462.4 2761.9 1477.4 2999.5 1496.4L3016.8 1497.7C3051.9 1500.5 3088.3 1503.4 3125.2 1507.5C3189.9 1514.7 3257.4 1525.3 3314.8 1534.8L3315.2 1533.6Z" fill="#CDE7F6"/>
<path d="M3311.9 1501.6C3250.8 1492.6 3185.3 1483.4 3120.7 1477.5C3081.6 1474 3043.1 1472 3006 1470L2994.1 1469.3L2926 1465.7C2713.6 1454.6 2545.9 1445.8 2365.8 1403.3C2320.6 1392.7 2274.6 1385.3 2225.9 1377.5C2202.7 1373.7 2178.8 1369.9 2154.7 1365.5C2052.4 1347.4 1942.3 1353.7 1797.9 1386C1706.7 1406.4 1615.1 1430.8 1517.7 1460.7C1423.8 1489.5 1347.9 1515 1278.7 1540.9C1204 1569 1126.5 1589 1044.7 1610.2C997.3 1622.5 948.2 1635.3 896.2 1650.2C791.2 1680.8 699.8 1689.7 611.4 1698.4C540 1705.4 472.5 1712 402.8 1729.5C280.1 1760.3 171.3 1831 70.1998 1945.8C23.8998 1998.4 -18.4002 2057.6 -57.7002 2119.4L-56.7002 2119.7C59.1998 1937.7 199.2 1781.8 402.8 1730.6C472.4 1713.2 539.9 1706.5 611.3 1699.6C699.8 1690.9 791.2 1681.9 896.3 1651.4C948.3 1636.3 997.4 1623.6 1044.7 1611.4C1126.6 1590.2 1204 1570.1 1278.8 1542.1C1348 1516 1423.9 1490.6 1517.7 1461.8C1615.1 1432 1706.7 1407.6 1797.9 1387.2C1942.2 1354.9 2052.1 1348.5 2154.4 1366.7C2178.3 1371 2202.3 1374.9 2225.4 1378.6C2274.2 1386.5 2320.2 1393.9 2365.3 1404.6C2545.4 1447.1 2713.3 1455.8 2925.6 1466.9L2993.8 1470.5L3005.7 1471.1C3042.9 1473.1 3081.2 1475.2 3120.4 1478.6C3185 1484.5 3250.4 1493.8 3311.5 1502.8L3311.9 1501.6Z" fill="#CDE7F6"/>
<path d="M3308.7 1469.7C3246.8 1461.5 3180.6 1453.3 3115.8 1448.6C3074.4 1445.8 3033.7 1444.7 2994.5 1443.6H2988.3C2944.7 1442.3 2903 1441.4 2862.8 1440.6C2680.2 1436.7 2522.6 1433.2 2358.2 1400.5C2313.5 1391.6 2267.9 1386 2219.6 1380.1C2195.6 1377.2 2170.9 1374.2 2146 1370.8C2044.2 1356.5 1937 1364.8 1787.5 1398.7C1693 1420.1 1600.9 1443.8 1505.9 1471.1C1433.1 1492.1 1347.7 1517.3 1266.6 1545.7C1199.7 1569.1 1131 1585.4 1058.3 1602.9C1002.8 1616.1 945.4 1629.8 883.5 1647.8C781.7 1677.3 693.1 1688 607.5 1698.3C533.8 1707.1 464.3 1715.5 392.7 1735.3C272 1768.5 164.6 1841 64.5999 1957C21.0999 2007.4 -18.6001 2063.1 -55.1001 2120L-54.1001 2120.3C61.5999 1939.1 196 1790.6 392.8 1736.3C464.3 1716.5 533.7 1708.2 607.4 1699.3C693.1 1689 781.8 1678.3 883.5 1648.8C945.5 1630.8 1002.8 1617.2 1058.4 1603.8C1131.1 1586.4 1199.8 1570.1 1266.7 1546.7C1347.7 1518.3 1433.1 1493.1 1506 1472.2C1601 1444.8 1693.1 1421.2 1787.5 1399.7C1936.9 1365.9 2043.9 1357.6 2145.6 1371.8C2170.4 1375.3 2195.3 1378.3 2219.2 1381.3C2267.4 1387.1 2313.1 1392.6 2357.7 1401.5C2522.2 1434.3 2679.9 1437.7 2862.5 1441.6C2902.7 1442.5 2944.5 1443.4 2988.1 1444.6L2994.2 1444.8C3033.4 1445.9 3074.1 1447 3115.4 1449.9C3180.2 1454.5 3246.4 1462.7 3308.2 1470.9L3308.7 1469.7Z" fill="#CDE7F6"/>
<path d="M3305.3 1437.8C3242.8 1430.4 3176 1423.2 3110.9 1419.9C3067.3 1417.8 3024.8 1417.7 2983.8 1417.5H2982.6C2923.2 1417.3 2867.8 1417.9 2814.2 1418.5C2647.3 1420.4 2503 1422.1 2350.5 1397.2C2306.4 1390 2261.2 1386.3 2213.3 1382.4C2188.6 1380.2 2163 1378.2 2137.2 1375.6C2012.7 1362.7 1890.5 1385 1777.1 1411C1676.6 1434 1584.1 1456.9 1494.2 1481.2C1406.9 1504.8 1328.6 1526.1 1254.5 1550.1C1193.6 1569.9 1131.3 1583.3 1065.3 1597.7C1003.8 1611 940.2 1624.7 870.7 1644.8C772.7 1673.3 687.4 1685.5 604.7 1697.3C528.5 1708.2 456.5 1718.4 382.7 1740.7C263.9 1776.6 158 1850.9 59.0002 1968C19.2002 2015.1 -17.8998 2067.2 -52.2998 2120.6L-51.0998 2120.9C62.8002 1943.9 194.5 1798.6 382.8 1741.9C456.5 1719.7 528.4 1709.3 604.7 1698.4C687.3 1686.7 772.7 1674.5 870.7 1646C940.3 1625.9 1003.8 1612.1 1065.2 1598.8C1131.3 1584.5 1193.7 1571 1254.6 1551.3C1328.7 1527.3 1406.9 1505.9 1494.2 1482.4C1584.1 1458.1 1676.6 1435.2 1777.1 1412.2C1890.4 1386.2 2012.5 1363.9 2137 1376.7C2162.7 1379.3 2188.2 1381.5 2212.9 1383.5C2260.8 1387.5 2305.9 1391.2 2350.1 1398.4C2502.7 1423.3 2647 1421.6 2813.9 1419.7C2867.6 1419.1 2923 1418.5 2982.4 1418.6H2983.5C3024.6 1418.6 3067 1418.7 3110.6 1420.8C3175.7 1424.1 3242.5 1431.4 3305 1438.7L3305.3 1437.8Z" fill="#CDE7F6"/>
<path d="M3302.1 1405.8C3238.8 1399.3 3171.3 1393.1 3105.9 1391.1C3060.1 1389.8 3014 1390.8 2976.8 1391.7C2905.1 1393.2 2839 1396.3 2775.4 1399.2C2620.2 1406.3 2486.2 1412.5 2342.9 1394.3C2299 1388.7 2254.2 1386.8 2206.6 1384.7C2181.3 1383.6 2155 1382.4 2128.6 1380.7C2014.7 1373.2 1901.5 1392.4 1766.7 1423.7C1681.7 1443.4 1582.7 1466.5 1482.5 1491.6L1453.7 1498.8C1379.6 1517.4 1309.8 1534.8 1242.4 1554.9C1186 1571.7 1128.7 1582.7 1067.9 1594.4C1001.8 1607.2 933.6 1620.4 858 1642.3C764.3 1669.5 682.6 1682.9 603.5 1696C524.4 1709.1 449.3 1721.4 372.6 1746.5C255.9 1784.8 151.5 1860.9 53.4 1979.2C16.7 2023.5 -17.3 2071.6 -49.5 2121.4L-48.2 2121.7C64 1948.7 192.8 1806.6 372.7 1747.6C449.2 1722.6 524.1 1710.2 603.5 1697.1C682.9 1684 764.2 1670.7 858.1 1643.4C933.6 1621.6 1001.8 1608.4 1067.8 1595.6C1128.6 1583.9 1186.2 1572.8 1242.4 1556C1309.8 1536 1379.7 1518.4 1453.6 1500L1482.4 1492.8C1582.7 1467.7 1681.8 1444.5 1766.7 1424.8C1901.3 1393.7 2014.4 1374.4 2128.2 1381.9C2154.8 1383.6 2180.9 1384.8 2206.4 1385.9C2253.9 1387.9 2298.7 1389.9 2342.5 1395.5C2485.9 1413.7 2620 1407.6 2775.1 1400.4C2838.9 1397.5 2904.8 1394.5 2976.6 1392.9C3013.7 1392 3059.8 1391 3105.6 1392.3C3170.9 1394.3 3238.5 1400.5 3301.7 1407L3302.1 1405.8Z" fill="#CDE7F6"/>
<path d="M3298.7 1373.8C3234.8 1368.3 3166.6 1363 3101.1 1362.2C3057 1361.9 3014.4 1363.7 2971.1 1365.8C2889.2 1369.6 2815.1 1375.7 2743.4 1381.5C2597.4 1393.4 2471.3 1403.7 2335.2 1391.3C2291.8 1387.4 2247.2 1387.1 2200 1386.8C2173.9 1386.8 2147.1 1386.5 2119.9 1385.7C1998.5 1382.2 1873.7 1408.7 1756.2 1436.3C1706.1 1448 1656.7 1459.3 1604.3 1471.2C1560.8 1481.2 1515.8 1491.4 1470.6 1502L1412.7 1515.3C1348.9 1529.9 1288.6 1543.7 1230.2 1559.7C1177.7 1573.9 1124.2 1582.9 1067.6 1592.5C997.9 1604.2 925.8 1616.3 845.2 1639.6C756.6 1665.4 679.1 1679.8 604.2 1693.8C521 1709.2 442.4 1723.9 362.6 1752.2C247.8 1792.9 144.9 1870.7 47.8001 1990.3C14.2001 2031.6 -16.9999 2075.8 -46.8999 2122L-45.5999 2122.3C65.8001 1950.6 189.3 1814.8 362.6 1753.3C442.4 1725.1 520.9 1710.5 604.1 1694.9C679 1681 756.7 1666.5 845.3 1640.7C925.9 1617.5 997.9 1605.3 1067.5 1593.6C1124.2 1584.1 1177.7 1575.1 1230.3 1560.7C1288.6 1544.8 1348.9 1531 1412.6 1516.4L1470.6 1503.1L1604.4 1472.3C1656.7 1460.5 1706.1 1449.1 1756.2 1437.4C1873.6 1409.9 1998.4 1383.3 2119.6 1386.9C2146.8 1387.7 2173.7 1387.9 2199.7 1388C2246.9 1388.2 2291.5 1388.5 2334.9 1392.4C2471 1404.9 2597.2 1394.6 2743.2 1382.7C2814.9 1376.9 2889 1370.8 2970.9 1366.9C3014.2 1364.9 3056.8 1363 3100.8 1363.4C3166.3 1364.2 3234.5 1369.5 3298.4 1375L3298.7 1373.8Z" fill="#CDE7F6"/>
<path d="M3295.4 1341.9C3230.8 1337.2 3161.9 1332.9 3096.1 1333.5C3050.5 1333.9 3006.5 1336.9 2965.3 1339.9C2875.1 1346.4 2794.3 1355.9 2716.2 1365.1C2577.5 1381.5 2457.8 1395.5 2327.6 1388.3C2284.5 1385.8 2240.2 1387.3 2193.2 1388.8C2166.6 1389.7 2139.1 1390.6 2111 1390.8C1996.5 1391.5 1882.7 1416.4 1745.8 1448.8C1657.6 1469.6 1569.7 1488.5 1476.7 1508.5L1458.9 1512.3L1379.3 1528.9C1323 1540.5 1269.8 1551.5 1218.1 1564.3C1168.7 1576.4 1118.4 1583.6 1065.1 1591.2C992.5 1601.6 917.4 1612.5 832.4 1637C749.9 1660.9 677.3 1676 607 1690.5C519.3 1708.6 436.3 1725.8 352.4 1757.8C239.9 1800.9 138.4 1880.5 42.2001 2001.4C11.7001 2039.7 -16.7999 2080.1 -44.3999 2122.6L-43.6999 2122.8C58.0001 1965.9 180.9 1824.6 352.7 1758.9C436.4 1727 519.2 1709.8 607 1691.6C677.3 1677.1 749.8 1662.1 832.5 1638.1C917.4 1613.6 992.4 1602.8 1064.9 1592.5C1118.3 1584.7 1168.7 1577.5 1218.2 1565.3C1269.8 1552.7 1322.9 1541.7 1379.3 1530C1405.1 1524.7 1431.9 1519.2 1458.9 1513.4L1476.7 1509.6C1569.8 1489.6 1657.6 1470.9 1745.8 1449.9C1882.7 1417.5 1996.4 1392.7 2110.9 1392C2138.8 1391.8 2166.4 1390.9 2193.1 1390C2240 1388.4 2284.2 1387.1 2327.2 1389.5C2457.5 1396.7 2577.3 1382.6 2716 1366.3C2794.2 1357.1 2874.9 1347.5 2965.1 1341.1C3006.3 1338.1 3050.4 1335.1 3095.9 1334.6C3161.6 1334.1 3230.5 1338.4 3295.1 1343.1L3295.4 1341.9Z" fill="#CDE7F6"/>
<path d="M3292.2 1309.9C3226.9 1306.1 3157.3 1302.9 3091.3 1304.6C3044.2 1306 2998.6 1310.2 2959.5 1314C2862.3 1323.5 2776 1336.7 2692.7 1349.6C2565.5 1369.3 2445.2 1387.9 2319.9 1385.2C2277.2 1384.3 2233.1 1387.5 2186.5 1390.7C2159.1 1392.7 2131 1394.6 2102.4 1395.9C1989 1400.6 1872.2 1428.6 1748.5 1458.2L1735.4 1461.3C1645.7 1482.8 1555.3 1501.3 1447.1 1522.6C1414.4 1529.1 1382.2 1534.9 1351 1540.6C1300.5 1549.9 1252.6 1558.6 1206 1568.9C1159.4 1579.2 1111.5 1584.8 1061 1590.8C985.9 1599.6 908.3 1608.7 819.7 1634.4C744.3 1656.2 677.6 1671.3 613 1686C515.3 1708 431.1 1727.2 342.4 1763.5C231.9 1808.9 131.8 1890.3 36.6002 2012.5C9.2002 2047.7 -16.8998 2085 -41.7998 2123.3L-40.7998 2123.5C59.5002 1969.7 179.4 1831.5 342.6 1764.6C431.2 1728.3 515.4 1709.2 612.9 1687.1C677.5 1672.5 744.4 1657.3 819.8 1635.5C908.3 1609.8 985.8 1600.7 1060.9 1591.9C1111.4 1586 1159 1580.4 1206.1 1570C1253.2 1559.6 1300.4 1551 1351 1541.8C1382.2 1536.1 1414.4 1530.1 1447.1 1523.7C1555.3 1502.5 1645.7 1484 1735.4 1462.5L1748.4 1459.4C1872.1 1429.7 1988.9 1401.8 2102.1 1397C2130.8 1395.9 2159 1393.8 2186.3 1391.9C2232.9 1388.6 2276.9 1385.6 2319.6 1386.4C2445.1 1389.1 2565.3 1370.4 2692.6 1350.8C2776 1337.9 2862.2 1324.6 2959.4 1315.2C2998.4 1311.4 3044 1307.2 3091 1305.8C3157 1304.1 3226.6 1307.3 3291.9 1311.1L3292.2 1309.9Z" fill="#CDE7F6"/>
<path d="M3288.9 1278C3222.9 1275.1 3152.7 1272.8 3086.3 1275.8C3040.2 1278.1 2995.3 1283.1 2953.8 1288.1C2850.6 1300.6 2759.8 1318 2671.9 1334.8C2549.4 1358.4 2433.7 1380.5 2312.2 1382.2C2269.9 1382.9 2226 1387.5 2179.5 1392.6C2151.7 1395.5 2122.9 1398.6 2093.6 1400.9C1990.9 1408.8 1885.4 1434.6 1773.7 1462L1725 1473.9C1622.9 1498.6 1521.4 1517.5 1435.3 1532.9C1398 1539.6 1361.3 1545.4 1325.8 1551.1C1279.8 1558.4 1236.4 1565.4 1193.9 1573.6C1149.2 1582.2 1103.8 1586.3 1055.8 1590.7C978.7 1597.8 898.8 1605.1 807 1631.6C740.2 1651 680.5 1665.7 622.6 1679.9C517.6 1705.5 426.9 1727.7 332.3 1769.2C224.4 1816.6 126.4 1899.1 32.5002 2021.5C7.50019 2054.3 -16.3998 2088.6 -39.2998 2123.8C-39.0998 2124 -38.7998 2124 -38.3998 2124.1C60.5002 1971.9 175.4 1839.3 332.6 1770.2C427 1728.8 517.6 1706.7 622.7 1680.9C680.5 1666.8 740.3 1652.1 807 1632.8C898.7 1606.4 978.5 1599 1055.7 1591.9C1103.7 1587.5 1149.1 1583.4 1193.9 1574.7C1236.3 1566.5 1279.7 1559.6 1325.7 1552.2C1361.3 1546.5 1397.9 1540.7 1435.3 1534.1C1521.3 1518.7 1622.9 1499.7 1725 1475.1L1773.7 1463.1C1885.3 1435.8 1990.7 1410 2093.5 1402C2122.7 1399.9 2151.5 1396.7 2179.4 1393.7C2225.9 1388.7 2269.7 1384 2312 1383.4C2433.6 1381.6 2549.4 1359.4 2671.9 1336C2759.6 1319.2 2850.4 1301.8 2953.6 1289.3C2995.3 1284.2 3040.1 1279.3 3086.1 1277C3152.4 1274 3222.6 1276.3 3288.7 1279.1L3288.9 1278Z" fill="#CDE7F6"/>
<path d="M3285.6 1246C3208.5 1243.7 3144.3 1243 3081.4 1247C3034.2 1250.2 2989.5 1256.2 2948.1 1262.2C2839.6 1278 2744.9 1299.6 2653.4 1320.6C2534.8 1347.7 2422.7 1373.4 2304.6 1379.2C2262.5 1381.3 2218.8 1387.5 2172.6 1394.2C2144.2 1398.3 2114.8 1402.6 2084.9 1406C1992 1416.4 1897.1 1440.4 1796.6 1465.9C1769.9 1472.7 1742.3 1479.7 1714.6 1486.4C1631.3 1506.8 1541.6 1524.3 1423.6 1543.1C1382.2 1549.8 1341.9 1555.3 1302.8 1560.6C1260.6 1566.3 1220.8 1571.7 1181.8 1578.2C1139 1585.4 1095.5 1588.2 1049.6 1591.2C970.7 1596.3 889 1601.6 794.3 1629C737.9 1645.3 686.8 1658.7 637.3 1671.6C522.8 1701.5 423.9 1727.2 322.3 1774.9C217.9 1823.8 122.6 1906.3 31 2027.1C7.3 2058.3 -15.3 2091 -37 2124.4L-36.1 2124.7C60.2 1976.4 171.6 1846.7 322.5 1775.9C424.1 1728.4 522.9 1702.6 637.3 1672.7C686.8 1659.8 738 1646.4 794.3 1630.2C888.9 1602.8 970.6 1597.5 1049.4 1592.4C1095.4 1589.4 1138.8 1586.6 1181.7 1579.4C1220.7 1572.9 1260.5 1567.5 1302.7 1561.8C1341.7 1556.5 1382.1 1551 1423.6 1544.3C1541.6 1525.5 1631.3 1508 1714.5 1487.6C1742.3 1480.8 1770 1473.8 1796.6 1467C1897.1 1441.6 1992 1417.5 2084.8 1407.1C2114.6 1403.8 2144 1399.5 2172.5 1395.4C2218.7 1388.7 2262.3 1382.5 2304.4 1380.4C2422.7 1374.6 2534.8 1348.9 2653.4 1321.7C2745 1300.8 2839.6 1279.1 2947.9 1263.4C2989.3 1257.4 3034.2 1251.4 3081.2 1248.2C3144.1 1244.2 3208.3 1244.9 3285.3 1247.2L3285.6 1246Z" fill="#CDE7F6"/>
<path d="M3282.3 1214.1C3204.5 1212.8 3139.7 1213 3076.5 1218.2C3028.1 1222.3 2981.5 1229.6 2942.3 1236.3C2829.3 1255.4 2731.3 1281.5 2636.6 1306.8C2521.3 1337.5 2412.3 1366.6 2296.9 1376.2C2255.2 1379.6 2211.6 1387.5 2165.6 1395.8C2136.7 1401.1 2106.7 1406.5 2076.2 1411C1992.6 1423.2 1907.5 1445.8 1817.4 1469.7C1780.7 1479.4 1742.6 1489.5 1704.1 1499C1619.9 1519.8 1527 1537.1 1411.8 1553.5C1366.9 1559.9 1323.5 1564.7 1281.4 1569.4C1242.4 1573.7 1205.7 1577.8 1169.7 1582.9C1128.5 1588.7 1086.8 1590.3 1042.6 1592C962.1 1595 878.8 1598.2 781.4 1626.4C738 1639 697.6 1650 658.5 1660.7C532 1695.5 422.7 1725.4 312.2 1780.6C211.4 1830.8 118.9 1913.2 29.5002 2032.6C7.20018 2062.3 -14.0998 2093.3 -34.7998 2125L-33.8998 2125.2C59.8002 1980.8 167.7 1853.8 312.5 1781.6C422.8 1726.5 532.1 1696.6 658.5 1661.9C697.6 1651.2 738.1 1640.1 781.5 1627.5C878.8 1599.4 961.9 1596.2 1042.5 1593.1C1086.6 1591.5 1128.3 1589.9 1169.6 1584.1C1205.6 1579 1242.3 1575 1281.2 1570.6C1323.3 1565.9 1366.8 1561.1 1411.8 1554.7C1527 1538.2 1619.9 1521 1704.2 1500.1C1742.7 1490.6 1780.7 1480.6 1817.5 1470.8C1907.5 1446.9 1992.6 1424.3 2076.1 1412.1C2106.6 1407.7 2136.6 1402.3 2165.6 1397C2211.5 1388.7 2255 1380.8 2296.8 1377.4C2412.2 1367.7 2521.2 1338.7 2636.7 1308C2731.4 1282.7 2829.2 1256.6 2942.2 1237.5C2981.4 1230.8 3028 1223.5 3076.3 1219.4C3139.5 1214.3 3204.3 1214.1 3282.1 1215.2L3282.3 1214.1Z" fill="#CDE7F6"/>
<path d="M-32.6001 2125.5L-31.8001 2125.8C59.2999 1985.1 163.8 1860.7 302.5 1787.2C423.6 1723.1 540.6 1689.8 688.7 1647.7C714.3 1640.5 740.9 1632.9 768.8 1624.8C868.5 1596 953.1 1595.1 1034.9 1594.2C1077.5 1593.8 1117.8 1593.3 1157.5 1588.7C1190.9 1584.9 1224.9 1582 1260.8 1578.9C1305.6 1575 1351.9 1571 1400 1565C1514.6 1550.7 1608 1534 1693.8 1512.6C1742.3 1500.6 1790 1487.2 1836.1 1474.5C1916.5 1451.9 1992.5 1430.7 2067.4 1417.2C2098.6 1411.6 2129.1 1404.9 2158.6 1398.6C2204.4 1388.6 2247.6 1379.2 2289.1 1374.3C2402.3 1361 2508.6 1328.7 2621.2 1294.4C2718.7 1264.9 2819.5 1234.2 2936.5 1211.6C2975.5 1204.1 3022.1 1195.6 3071.4 1190.6C3134.9 1184.3 3200.2 1183.1 3278.8 1183.3L3279.1 1182.1C3200.5 1181.9 3135.1 1183.1 3071.6 1189.4C3022.2 1194.5 2975.6 1202.9 2936.6 1210.4C2819.6 1232.9 2718.7 1263.7 2621.1 1293.3C2508.7 1327.5 2402.3 1359.9 2289.2 1373.2C2247.7 1378 2204.4 1387.5 2158.6 1397.4C2129.1 1403.8 2098.6 1410.4 2067.4 1416C1992.5 1429.6 1916.6 1450.7 1836.1 1473.3C1790 1486.1 1742.3 1499.5 1693.7 1511.5C1607.8 1532.9 1514.6 1549.6 1400.1 1563.8C1352.1 1569.8 1305.8 1573.8 1261.1 1577.6C1225 1580.8 1191 1583.7 1157.6 1587.6C1117.9 1592.2 1077.7 1592.6 1035.2 1593C953.3 1593.9 868.6 1594.9 768.7 1623.8L688.6 1646.7C540.5 1688.7 423.4 1721.9 302.2 1786.2C204.8 1837.8 115.1 1920.1 27.9999 2037.8C6.99989 2066.1 -13.1001 2095.5 -32.6001 2125.5Z" fill="#CDE7F6"/>
<path d="M-30.6001 2126.1L-29.7001 2126.3C58.5999 1989.2 159.7 1867.5 292.5 1792.9C426.9 1717.3 554.3 1680.5 730.8 1629.5L756 1622.2C858 1592.7 947.7 1594.2 1026.9 1595.5C1068 1596.2 1106.9 1596.7 1145.3 1593.4C1176.4 1590.7 1208 1588.7 1241.5 1586.7C1288.6 1583.7 1337.4 1580.8 1388.2 1575.3C1502.4 1563.1 1596.1 1547.2 1683.3 1525.2C1741.4 1510.7 1798 1493.9 1852.8 1477.7C1924.4 1456.5 1992 1436.5 2058.7 1422.2C2090.5 1415.4 2121.6 1407.5 2151.5 1400C2197.2 1388.4 2240.2 1377.6 2281.5 1371.3C2392.7 1354.4 2496.8 1318.9 2607 1281.3C2707 1247 2810.3 1211.7 2930.8 1185.7C2967.3 1177.8 3015.9 1167.9 3066.5 1161.8C3137.4 1153.5 3211.6 1152 3275.6 1151.3L3275.8 1150.2C3211.8 1150.9 3137.6 1152.3 3066.7 1160.6C3016 1166.7 2967.4 1176.6 2930.8 1184.5C2810.2 1210.6 2706.9 1245.9 2606.8 1280.2C2496.7 1317.7 2392.7 1353.3 2281.6 1370.1C2240.3 1376.4 2197.2 1387.3 2151.6 1398.8C2121.5 1406.4 2090.5 1414.2 2058.6 1421.1C1992 1435.4 1924.3 1455.4 1852.8 1476.5C1798 1492.7 1741.3 1509.5 1683.3 1524.1C1596.2 1546 1502.5 1561.9 1388.4 1574.1C1337.4 1579.6 1288.8 1582.6 1241.7 1585.5C1208.2 1587.5 1176.6 1589.5 1145.5 1592.2C1107.1 1595.6 1068.2 1595 1027.2 1594.2C947.9 1593 858.1 1591.5 756 1621.1L730.8 1628.3C554.2 1679.4 426.6 1716.2 292.1 1791.9C198.2 1844.6 111.4 1926.7 26.2999 2042.9C6.6999 2069.83 -12.2668 2097.57 -30.6001 2126.1Z" fill="#CDE7F6"/>
<path d="M-28.7998 2126.5L-27.7998 2126.8C57.9002 1993.3 155.5 1874.1 282.4 1798.6C421.5 1715.8 555.1 1674 743.3 1619.5C847.4 1589.5 938.3 1593.5 1018.4 1597C1058.3 1598.7 1096 1600.3 1133.1 1598.1C1162.1 1596.3 1191.5 1595.2 1222.7 1594.1C1272 1592.2 1322.9 1590.4 1376.4 1585.7C1490.4 1575.5 1584.6 1560.2 1672.9 1537.8C1739.7 1520.8 1804.7 1500.4 1867.5 1480.7C1930.3 1461 1990.7 1441.9 2050 1427.2C2082.4 1419.2 2114 1410.1 2144.5 1401.3C2190 1388.3 2232.9 1375.9 2273.9 1368.3C2383.4 1348 2485.5 1309.3 2593.6 1268.3C2695.7 1229.5 2801.3 1189.4 2925 1159.8C2961.5 1151.1 3010.1 1140.1 3061.6 1132.9C3132.8 1123.4 3207.7 1121 3272.2 1119.4L3272.4 1118.3C3207.9 1119.8 3132.9 1122.2 3061.7 1131.8C3010.2 1138.9 2961.6 1149.9 2925.1 1158.6C2801.3 1188.2 2695.6 1228.4 2593.4 1267.2C2485.4 1308.2 2383.3 1346.8 2273.9 1367.2C2232.9 1374.7 2190 1387.1 2144.5 1400.3C2113.9 1409 2082.4 1418.1 2049.9 1426.1C1990.7 1440.8 1930.9 1459.6 1867.4 1479.5C1803.9 1499.4 1739.6 1519.7 1672.9 1536.6C1584.7 1559 1490.5 1574.2 1376.6 1584.5C1323.1 1589.3 1272.1 1591.1 1223 1592.9C1191.7 1594 1162.3 1595.1 1133.3 1596.9C1096.2 1599.2 1058.5 1597.5 1018.8 1595.8C938.4 1592.3 847.4 1588.3 743.2 1618.4C555 1672.8 421.2 1714.8 282 1797.5C191.6 1851.4 107.5 1933.2 24.8002 2047.7C6.40019 2073.3 -11.4665 2099.57 -28.7998 2126.5Z" fill="#CDE7F6"/>
<path d="M-27 2126.9L-26.1 2127.2C56.9 1997.1 151.1 1880.5 272.4 1804.3C408.1 1718.9 538.2 1672.5 730.6 1616.9C836.7 1586.3 928.5 1592.9 1009.7 1598.6C1048.4 1601.3 1084.9 1604 1121.1 1602.7C1148 1601.8 1175.3 1601.5 1204.4 1601.2C1255.7 1600.6 1308.6 1600 1364.7 1595.9C1478.5 1587.7 1573.1 1573.3 1662.5 1550.4C1737.5 1531.2 1810.2 1506.8 1880.6 1483.3C1936.3 1464.6 1989 1447 2041.3 1432.3C2074.3 1423 2106.4 1412.7 2137.5 1402.6C2182.7 1388 2225.5 1374.2 2266.3 1365.3C2374.3 1341.6 2474.8 1299.7 2581.1 1255.4C2685.1 1212 2792.7 1167.2 2919.2 1133.9C2973.4 1119.7 3015.9 1110.5 3056.7 1104.2C3128.4 1093.3 3203.9 1089.8 3269 1087.4L3269.2 1086.3C3204 1088.6 3128.4 1092.2 3056.9 1103C3015.9 1109.4 2973.5 1118.5 2919.2 1132.8C2792.6 1166 2684.9 1210.9 2580.8 1254.3C2474.6 1298.6 2374.2 1340.5 2266.3 1364.1C2225.5 1373 2182.7 1386.9 2137.4 1401.5C2106.3 1411.5 2074.2 1421.9 2041.2 1431.2C1989 1445.9 1936.2 1463.5 1880.4 1482.1C1810.1 1505.7 1737.5 1530 1662.5 1549.2C1573.2 1572.1 1478.6 1586.6 1364.9 1594.7C1309 1598.8 1256 1599.3 1204.7 1600C1175.6 1600.3 1148.2 1600.7 1121.3 1601.6C1085.3 1602.7 1048.7 1600.2 1010 1597.4C928.8 1591.6 836.7 1585.1 730.5 1615.8C537.9 1671.5 407.9 1717.8 272 1803.2C184.9 1858 103.5 1939.5 23.1 2052.4C5.90001 2076.6 -10.8 2101.43 -27 2126.9Z" fill="#CDE7F6"/>
<path d="M-25.5 2127.3L-24.6 2127.6C55.8 2000.9 146.6 1886.7 262.3 1809.9C404.7 1715.5 542.2 1665 717.8 1614.2C825.8 1583.1 918.7 1592.3 1000.7 1600.4C1038.3 1604.1 1073.8 1607.6 1108.9 1607.4C1134 1607.2 1159.6 1607.6 1186.7 1607.9C1239.7 1608.6 1294.6 1609.4 1352.9 1606.2C1466.7 1600 1561.8 1586.2 1652 1562.9C1734.8 1541.5 1814.8 1513 1892 1485.5C1940.8 1468.1 1986.7 1451.7 2032.5 1437.3C2066.3 1426.8 2098.9 1415.1 2130.4 1403.8C2175.5 1387.7 2218.2 1372.4 2258.7 1362.2C2365.5 1335.3 2464.4 1290.3 2569.1 1242.7C2673.8 1195.1 2784.3 1144.9 2913.5 1108.1C2967.6 1092.6 3010.2 1082.5 3051.8 1075.3C3123.8 1063.3 3199.9 1058.8 3265.7 1055.5L3265.9 1054.3C3200.1 1057.6 3123.9 1062 3051.9 1074.2C3010.2 1081.4 2967.6 1091.4 2913.5 1106.8C2784.2 1143.7 2674.7 1193.6 2568.9 1241.7C2463.1 1289.8 2365.3 1334.2 2258.7 1361.1C2218.1 1371.3 2175.5 1386.5 2130.3 1402.7C2098.7 1414 2066.1 1425.7 2032.5 1436.3C1986.6 1450.6 1940.6 1467 1891.8 1484.4C1814.6 1511.9 1734.8 1540.3 1652.1 1561.7C1561.8 1585 1466.8 1598.8 1353.2 1605.1C1294.9 1608.2 1240 1607.5 1186.9 1606.8C1159.8 1606.4 1134.4 1606 1109.1 1606.3C1074.1 1606.5 1038.6 1603 1001 1599.2C918.9 1591.1 825.9 1581.9 717.7 1613.1C542 1663.9 404.4 1714.4 261.9 1808.9C178.2 1864.5 99.5 1945.5 21.5 2056.8C5.3 2079.7 -10.3 2103.4 -25.5 2127.3Z" fill="#CDE7F6"/>
<path d="M-24.1001 2127.7L-23.3001 2127.9C54.3999 2004.5 141.9 1892.7 252.3 1815.6C380.7 1725.8 507.6 1668.6 705 1611.5C814.8 1579.9 908.6 1591.8 991.3 1602.4C1028 1607 1062.5 1611.4 1096.7 1612.1C1120.2 1612.5 1144 1613.5 1169.3 1614.5C1224 1616.5 1280.6 1618.8 1341.2 1616.5C1453.4 1612.3 1551.7 1598.9 1641.6 1575.4C1731.5 1551.9 1818.2 1519.1 1901.9 1487.4C1944.1 1471.3 1984.1 1456.1 2023.9 1442.3C2058.1 1430.6 2091.3 1417.5 2123.3 1405C2168.3 1387.3 2210.8 1370.7 2251.1 1359.2C2356.8 1329.1 2454.4 1281 2557.8 1230.1C2665.1 1177.3 2776.2 1122.7 2907.7 1082.1C2961 1065.7 3005.2 1054.4 3046.9 1046.6C3119.2 1033.1 3196.1 1027.7 3262.4 1023.5L3262.6 1022.4C3196.2 1026.5 3119.3 1032 3047 1045.4C3005.3 1053.3 2960.9 1064.6 2907.6 1081C2776 1121.6 2664.9 1176.2 2557.5 1229.1C2454.1 1280 2356.6 1327.9 2251 1358.1C2210.7 1369.6 2168.2 1386.2 2123.1 1403.8C2091.1 1416.4 2057.9 1429.4 2023.7 1441.3C1984 1455 1944 1470.2 1901.8 1486.3C1818 1518 1731.5 1550.9 1641.6 1574.3C1551.7 1597.7 1453.5 1611.2 1341.4 1615.3C1281 1617.6 1224.2 1615.4 1169.6 1613.3C1144.3 1612.4 1120.5 1611.4 1097 1610.9C1062.8 1610.3 1028.3 1605.8 991.7 1601.2C908.9 1590.6 815 1578.7 705 1610.5C507.3 1667.6 380.3 1724.8 251.8 1814.6C171.4 1870.9 95.3999 1951.5 19.6999 2061.1C4.69991 2082.8 -9.9001 2105.1 -24.1001 2127.7Z" fill="#CDE7F6"/>
<path d="M-23 2128L-22 2128.2C53 2008 137.1 1898.6 242.3 1821.2C374.8 1723.7 500.9 1664.2 692.2 1608.9C803.7 1576.8 898.3 1591.4 981.8 1604.3C1017.5 1609.9 1051.2 1615.2 1084.6 1616.7C1106.6 1617.7 1128.6 1619.2 1152 1620.7C1208.4 1624.4 1266.8 1628.1 1329.4 1626.9C1441.7 1624.6 1540.4 1611.8 1631.3 1587.9C1728 1562.6 1820.7 1525.1 1910.5 1488.9C1946.7 1474.2 1980.9 1460.4 2015.1 1447.5C2049.3 1434.6 2083.6 1419.9 2116.2 1406C2161.1 1386.9 2203.4 1368.8 2243.4 1356.2C2348.3 1322.8 2444.7 1271.8 2546.9 1217.7C2655.7 1160.1 2768.3 1100.4 2902 1056.2C2955.2 1038.6 2999.7 1026.4 3042.1 1017.7C3114.8 1003.1 3192.3 996.6 3259.1 991.7L3259.3 990.5C3192.4 995.4 3114.8 1002 3042.1 1016.6C2999.7 1025.3 2955.1 1037.5 2901.9 1055.1C2768 1099.4 2655.5 1159 2546.5 1216.7C2444.4 1270.7 2348 1321.7 2243.3 1355C2203.2 1367.8 2160.9 1385.8 2115.9 1405C2083.4 1418.8 2049.8 1433.2 2015 1446.4C1980.2 1459.6 1946.5 1473.1 1910.3 1487.8C1820.6 1524 1727.9 1561.4 1631.2 1586.8C1540.4 1610.7 1441.8 1623.4 1329.6 1625.6C1267 1626.9 1208.8 1623.2 1152.4 1619.6C1128.9 1618 1106.8 1616.5 1084.9 1615.6C1051.6 1614 1017.9 1608.7 982.2 1603.2C898.6 1590.3 803.9 1575.6 692.3 1607.7C500.7 1663.1 374.4 1722.7 241.8 1820.3C164.5 1877.1 91.3 1957.2 17.9 2065.2C3.90001 2085.7 -9.7 2106.7 -23 2128Z" fill="#CDE7F6"/>
<path d="M-22 2128.3L-21.1 2128.5C51.3 2011.4 132.1 1904.3 232.2 1826.9C366.2 1723.2 495.8 1659.3 679.5 1606.3C792.6 1573.7 888 1591.1 972.1 1606.6C1007 1613 1039.9 1618.9 1072.4 1621.4C1092.8 1622.9 1113.2 1624.8 1134.9 1626.7C1192.9 1632 1252.9 1637.3 1317.7 1637.1C1430 1636.8 1529.2 1624.9 1620.8 1600.6C1723.9 1573.1 1822.5 1530.9 1917.9 1489.9C1948.5 1476.8 1977.5 1464.4 2006.4 1452.5C2042 1437.9 2076.1 1422.2 2108.9 1407.1C2153.7 1386.5 2196 1367.1 2235.8 1353.2C2339.8 1316.7 2435.3 1262.6 2536.3 1205.3C2646.5 1142.8 2760.4 1078.3 2896.3 1030.3C2949.5 1011.6 2994.2 998.5 3037.1 989C3110.2 973 3188.3 965.5 3255.9 959.6V958.5C3188.3 964.3 3110.1 971.9 3037.1 987.8C2994.1 997.3 2949.3 1010.4 2896.1 1029.2C2760 1077.2 2646.1 1141.8 2536 1204.3C2434.9 1261.5 2339.5 1315.6 2235.6 1352.1C2195.7 1366 2153.4 1385.4 2108.7 1406C2075.6 1421.2 2041.6 1436.9 2006.1 1451.4C1977.1 1463.3 1948.2 1475.7 1917.6 1488.9C1822.2 1529.8 1723.7 1572.1 1620.6 1599.4C1529.2 1623.7 1430.1 1635.6 1317.8 1635.9C1253.1 1636.2 1193.1 1630.8 1135.2 1625.5C1113.5 1623.6 1093 1621.7 1072.6 1620.3C1040.1 1617.8 1007.3 1611.8 972.5 1605.4C888.3 1589.9 792.8 1572.5 679.3 1605.2C495.5 1658.3 365.8 1722.3 231.7 1826C157.7 1883.3 87 1962.8 16 2069.1C3 2088.5 -9.6 2108.2 -22 2128.3Z" fill="#CDE7F6"/>
<path d="M-21.2002 2128.5L-20.3002 2128.7C49.3998 2014.6 126.9 1909.9 222.2 1832.5C358.6 1721.7 487.4 1655.4 666.8 1603.6C781.5 1570.6 877.5 1590.9 962.2 1608.8C996.3 1616 1028.6 1622.8 1060.3 1626.1C1079.2 1628 1098.1 1630.2 1118.2 1632.5C1177.7 1639.4 1239.1 1646.5 1305.9 1647.4C1418.4 1649.1 1518 1637.8 1610.4 1613.1C1719.5 1583.9 1823.6 1536.5 1924.2 1490.6C1949.6 1479.1 1973.6 1468.2 1997.7 1457.5C2033.8 1441.6 2068.3 1424.5 2101.8 1408.1C2146.4 1386.1 2188.5 1365.3 2228.2 1350.1C2331.5 1310.5 2426.2 1253.4 2526.2 1192.9C2637.6 1125.6 2752.8 1056.1 2890.6 1004.4C2943.7 984.6 2988.6 970.5 3032.2 960.1C3105.6 943 3184.5 934.4 3252.6 927.7L3252.8 926.6C3184.5 933.2 3105.7 941.8 3032.3 959C2988.6 969.4 2943.5 983.4 2890.4 1003.3C2752.5 1055.1 2637.3 1124.7 2525.8 1192C2425.8 1252.4 2331.3 1309.5 2228 1349C2188.3 1364.3 2146.2 1385 2101.5 1407C2068.1 1423.5 2033.5 1440.5 1997.5 1456.5C1973.4 1467.2 1949.4 1478 1924 1489.6C1823.4 1535.4 1719.4 1582.7 1610.4 1612C1518.1 1636.6 1418.5 1647.9 1306.1 1646.3C1239.5 1645.4 1178 1638.3 1118.5 1631.4C1098.4 1629.1 1079.5 1626.9 1060.6 1624.9C1028.9 1621.7 996.7 1614.9 962.6 1607.6C877.8 1589.7 781.8 1569.3 666.7 1602.5C487.1 1654.3 358.1 1720.7 221.7 1831.7C150.6 1889.4 82.6998 1968.2 13.8998 2072.9C1.89981 2091.1 -9.8002 2109.7 -21.2002 2128.5Z" fill="#CDE7F6"/>
<path d="M-20.7002 2128.6L-19.7002 2128.8C47.2998 2017.7 121.6 1915.3 212.1 1838.1C350.3 1720.4 478.3 1651.6 654 1600.9C770.3 1567.4 866.9 1590.7 952.2 1611.1C985.6 1619.1 1017 1626.7 1048.1 1630.7C1065.5 1633 1083 1635.5 1101.5 1638.1C1162.4 1646.7 1225.5 1655.7 1294 1657.8C1406.8 1661.2 1506.8 1650.8 1599.9 1625.7C1714.8 1594.7 1823.9 1542.1 1929.5 1491.2C1950.1 1481.2 1969.4 1471.8 1989.1 1462.5C2025.6 1445.2 2060.7 1426.8 2094.7 1408.9C2139.1 1385.6 2181.1 1363.5 2220.6 1347.1C2323.3 1304.4 2417.1 1244.3 2516.4 1180.7C2628.8 1108.5 2745.2 1033.9 2884.8 978.6C2937.8 957.5 2983.2 942.5 3027.3 931.3C3101 912.9 3180.6 903.3 3249.4 895.8V894.6C3180.6 902.1 3101 911.7 3027.3 930.1C2983 941.4 2937.7 956.4 2884.5 977.5C2744.8 1032.9 2628.4 1107.6 2515.8 1179.7C2416.6 1243.3 2322.9 1303.4 2220.2 1346.1C2180.8 1362.4 2138.7 1384.5 2094.2 1407.9C2060.3 1425.8 2025.3 1444.2 1988.7 1461.4L1929.1 1490C1823.6 1541 1714.6 1593.5 1599.8 1624.5C1506.8 1649.6 1406.8 1660.1 1294.2 1656.7C1225.6 1654.5 1162.8 1645.5 1101.8 1636.9C1083.3 1634.3 1065.9 1631.8 1048.4 1629.6C1017.4 1625.5 985.9 1618 952.6 1610C867.1 1589.6 770.4 1566.2 653.9 1599.8C478 1650.6 349.8 1719.4 211.5 1837.4C143.5 1895.3 78.0998 1973.6 11.6998 2076.5C0.699814 2093.63 -10.1002 2111 -20.7002 2128.6Z" fill="#CDE7F6"/>
<path d="M9.50009 2080C-0.599909 2096 -10.5999 2112.3 -20.3999 2128.7L-19.3999 2128.9C45.0001 2020.7 116.1 1920.7 202.1 1843.8C341.5 1719.2 468.7 1648.1 641.3 1598.3C759 1564.4 856.3 1590.5 942.1 1613.6C974.8 1622.3 1005.6 1630.6 1036 1635.4C1052 1637.9 1068 1640.6 1084.9 1643.4C1147.3 1653.9 1211.6 1664.8 1282.2 1668.1C1395.2 1673.5 1495.6 1663.7 1589.5 1638.1C1709.8 1605.5 1823.6 1547.4 1933.8 1491.2L1980.3 1467.6C2017.5 1448.9 2053.1 1428.9 2087.5 1409.8C2131.8 1385 2173.7 1361.6 2213 1344C2315.2 1298.3 2408.3 1235.2 2506.7 1168.5C2620.3 1091.4 2737.7 1011.8 2879.1 952.7C2932.2 930.4 2977.7 914.5 3022.5 902.5C3096.5 882.9 3176.7 872.2 3246 863.8L3246.2 862.6C3176.8 871.1 3096.6 881.7 3022.5 901.4C2977.7 913.4 2932.1 929.3 2878.9 951.6C2737.4 1010.7 2619.9 1090.4 2506.3 1167.4C2407.8 1234.2 2314.8 1297.4 2212.7 1343C2173.4 1360.5 2131.5 1384 2087.1 1408.8C2052.7 1428 2017.2 1447.8 1980.1 1466.5L1933.5 1490.3C1823.4 1546.4 1709.6 1604.4 1589.6 1637C1495.8 1662.6 1395.4 1672.3 1282.5 1667C1212 1663.6 1147.6 1652.8 1085.3 1642.3C1068.4 1639.4 1052.3 1636.8 1036.4 1634.2C1006 1629.5 975.2 1621.2 942.6 1612.4C856.6 1589.4 759.3 1563.1 641.3 1597.1C550.6 1623.3 471.5 1656 399.9 1697C333.4 1735 270.5 1781.3 201.5 1843C136.4 1901.2 73.6001 1978.7 9.50009 2080Z" fill="#CDE7F6"/>
<path d="M-20.3999 2128.7L-19.2999 2129C42.5001 2023.6 110.5 1925.8 192 1849.4C332.3 1718.2 458.8 1644.6 628.5 1595.6C747.8 1561.3 845.6 1590.4 931.8 1616.1C963.8 1625.6 994 1634.5 1023.8 1640.1L1068.4 1648.6C1129.1 1660.3 1197.9 1673.8 1270.5 1678.4C1383.6 1685.7 1484.5 1676.7 1579.1 1650.7C1704.5 1616.4 1822.8 1552.7 1937.5 1491L1971.7 1472.6C2009.4 1452.4 2045.4 1431.2 2080.2 1410.6C2124.5 1384.4 2166.3 1359.7 2205.4 1341C2307.1 1292.3 2399.5 1226.2 2497.4 1156.2C2611.9 1074.4 2730.3 989.6 2873.3 926.8C2926.4 903.4 2972.3 886.5 3017.5 873.7C3092.1 852.8 3169.7 841.6 3242.8 831.8V830.7C3169.7 840.4 3092.1 851.6 3017.5 872.6C2972.2 885.4 2926.3 902.3 2873.1 925.6C2730.1 988.6 2611.4 1073.4 2496.9 1155.3C2399.1 1225.3 2306.8 1291.3 2205 1340.1C2165.9 1358.7 2124.1 1383.4 2079.9 1409.5C2045 1430.2 2009 1451.5 1971.3 1471.6L1937.1 1490C1822.7 1551.6 1704.3 1615.3 1579.1 1649.6C1484.6 1675.5 1383.8 1684.5 1270.8 1677.3C1198.3 1672.6 1129.5 1659.2 1068.9 1647.4L1024.3 1638.9C994.5 1633.5 964.3 1624.4 932.4 1614.9C846 1589.2 748.1 1560.1 628.4 1594.5C538.4 1620.4 459.7 1654 388 1697C322.8 1735.9 260.3 1784.2 191.5 1848.7C109.7 1925.2 41.6001 2023.2 -20.3999 2128.7Z" fill="#CDE7F6"/>
<path d="M-20.5 2128.7L-19.5 2128.9C39.8 2026.4 104.7 1931 182.1 1855.1C322.7 1717.2 448.3 1641.3 615.8 1593C736.4 1558.3 834.8 1590.3 921.4 1618.6C952.8 1628.9 982.4 1638.5 1011.7 1644.7L1052.1 1653.4C1114 1667.1 1184.2 1682.7 1258.8 1688.8C1372 1697.9 1473.4 1689.6 1568.8 1663.3C1698.9 1627.4 1827.1 1554.7 1940.3 1490.5L1962.9 1477.6C2001.2 1456.1 2037.8 1433.3 2073 1411.3C2117.1 1383.8 2158.8 1357.9 2197.6 1338C2299.2 1286.2 2391 1217.1 2488.2 1144.1C2603.7 1057.2 2723.1 967.5 2867.6 900.9C2920 876.7 2967.5 858.4 3012.7 844.8C3087.6 822.7 3165.7 810.6 3239.5 799.9V798.7C3165.7 809.4 3087.4 821.6 3012.5 843.8C2967.2 857.3 2919.7 875.6 2867.3 899.8C2722.6 966.5 2603.1 1056.3 2487.6 1143.2C2390.4 1216.2 2298.6 1285.2 2197.3 1336.9C2158.3 1356.9 2116.7 1382.8 2072.5 1410.3C2037.2 1432.3 2000.7 1455.1 1962.5 1476.7L1939.8 1489.5C1826.8 1553.6 1698.6 1626.3 1568.6 1662.2C1473.3 1688.4 1372.1 1696.7 1258.9 1687.6C1184.5 1681.5 1114.3 1666.1 1052.3 1652.4C1038.5 1649.3 1025.3 1646.3 1012.1 1643.6C983 1637.4 953.3 1627.8 921.8 1617.5C835.1 1589.1 736.6 1557.1 615.6 1591.9C526.1 1617.7 447.7 1652 375.9 1696.8C311.8 1736.9 250 1786.9 181.3 1854.4C103.9 1930.3 38.8 2026 -20.5 2128.7Z" fill="#CDE7F6"/>
<path d="M-20.8999 2128.6L-19.7999 2128.8C36.8001 2029.1 98.8001 1935.9 172 1860.8C312.7 1716.4 437.5 1638.1 603 1590.4C725.1 1555.2 823.9 1590.3 911 1621.2C941.8 1632.1 970.8 1642.5 999.6 1649.4L1035.6 1658.2C1098.8 1673.8 1170.4 1691.6 1246.9 1699C1360.4 1710.1 1462.3 1702.5 1558.3 1675.8C1693.2 1638.3 1825.6 1559.4 1942.5 1489.7L1954.2 1482.7C1993 1459.6 2030 1435.4 2065.7 1412C2109.8 1383.2 2151.3 1356 2190.1 1334.9C2291.2 1280.2 2382.5 1208.2 2479.1 1132C2595.5 1040.2 2715.9 945.4 2861.9 875C2914.3 849.7 2962 830.4 3007.7 816.1C3083 792.7 3161.8 779.5 3236.2 767.9L3236.4 766.8C3161.8 778.4 3083 791.6 3007.6 815C2962 829.3 2914.1 848.6 2861.6 873.9C2715.4 944.4 2595 1039.3 2478.7 1131C2382.1 1207.3 2290.7 1279.2 2189.8 1334C2151 1354.9 2109.4 1382.2 2065.3 1411.1C2029.6 1434.4 1992.7 1458.6 1953.9 1481.7L1942.1 1488.7C1825.3 1558.3 1692.9 1637.3 1558.2 1674.8C1462.3 1701.4 1360.6 1708.9 1247.2 1697.9C1170.9 1690.4 1099.3 1672.6 1036 1657.1L1000.1 1648.2C971.5 1641.4 942.4 1631 911.6 1620.1C824.3 1589.1 725.4 1554 603 1589.2C514 1614.8 435.8 1650 364.1 1696.8C301 1737.9 239.7 1789.7 171.3 1860C98.0001 1935.3 35.9001 2028.7 -20.8999 2128.6Z" fill="#CDE7F6"/>
<path d="M-21.5 2128.4L-20.5 2128.7C33.7 2031.7 92.7 1940.8 162 1866.5C280.7 1738.9 399 1642.8 590.3 1587.6C713.8 1552.1 812.9 1590.3 900.5 1623.9C930.7 1635.5 959.3 1646.5 987.5 1654.1L1019.1 1662.7C1083.6 1680.4 1156.7 1700.3 1235.3 1709.3C1348.9 1722.4 1451.2 1715.5 1547.9 1688.4C1687.2 1649.3 1823.6 1564 1944 1488.7L1945.5 1487.7C1984.9 1463.1 2022.3 1437.4 2058.5 1412.7C2102.4 1382.4 2144 1354 2182.5 1332C2283.3 1274.2 2374.2 1199.2 2470.4 1119.8C2587.5 1023.2 2708.7 923.2 2856.1 849C2908.5 822.7 2956.6 802.4 3002.9 787.3C3078.5 762.6 3158 748.5 3232.9 736V734.9C3158 747.3 3078.5 761.5 3002.8 786.1C2956.4 801.4 2908.3 821.7 2855.9 848.1C2708.3 922.3 2587.1 1022.3 2469.7 1119C2373.7 1198.3 2282.8 1273.2 2182.1 1330.9C2143.4 1353.1 2102 1381.6 2058 1411.6C2021.9 1436.5 1984.4 1462.2 1945.1 1486.7L1943.6 1487.7C1823.3 1563 1686.9 1648.3 1547.8 1687.3C1451.2 1714.3 1349.1 1721.1 1235.6 1708.2C1157.1 1699.2 1084.1 1679.2 1019.6 1661.5L988 1652.9C959.8 1645.4 931.3 1634.4 901.1 1622.8C813.4 1589.1 714 1550.9 590.2 1586.5C501.6 1612.1 423.8 1648 352.2 1696.7C290 1738.9 229.4 1792.6 161.3 1865.7C93.2 1938.8 32.7 2031.3 -21.5 2128.4Z" fill="#CDE7F6"/>
<path d="M-22.3999 2128.1L-21.2999 2128.4C30.3001 2034.2 86.5001 1945.6 152 1872.1C270.3 1739.3 387.9 1639.6 577.6 1585C702.4 1549.1 802 1590.3 890 1626.7C919.6 1638.9 947.6 1650.5 975.3 1658.8L1002.8 1666.9C1068.5 1686.7 1142.9 1709.2 1223.4 1719.6C1337.3 1734.6 1440.1 1728.4 1537.4 1700.9C1681 1660.5 1822.8 1567.4 1936.9 1492.8C1976.7 1466.7 2014.6 1439.5 2051.3 1413.2C2095 1381.8 2136.4 1352.1 2174.8 1328.9C2275.4 1268.2 2365.8 1190.3 2461.7 1107.8C2579.7 1006.2 2701.7 901.1 2850.4 823.1C2902.9 795.7 2951.2 774.5 2998 758.5C3073.9 732.7 3154.1 717.4 3229.7 704.1V702.9C3154.1 716.3 3074 731.5 2997.9 757.4C2951 773.4 2902.7 794.6 2850.1 822.2C2701.1 900.1 2579.1 1005.2 2461.1 1106.9C2365.4 1189.4 2274.9 1267.3 2174.5 1328C2136 1351.1 2094.5 1380.9 2050.8 1412.3C2014.2 1438.5 1976.2 1465.7 1936.4 1491.8C1822.5 1566.5 1680.7 1659.4 1537.4 1699.8C1440.1 1727.3 1337.6 1733.3 1223.8 1718.5C1143.4 1708 1069 1685.6 1003.3 1665.9C994.1 1663 984.9 1660.3 975.9 1657.6C948.3 1649.4 920.2 1637.8 890.5 1625.5C802.5 1589.1 702.6 1547.9 577.5 1583.9C489.3 1609.2 411.6 1646.1 340.2 1696.6C278.1 1740.5 219.8 1794.5 151.2 1871.4C85.6001 1945 29.3001 2033.8 -22.3999 2128.1Z" fill="#CDE7F6"/>
<path d="M-23.5 2127.8C-23.2064 2128 -22.8565 2128.11 -22.5 2128.1C26.7 2036.6 80.1 1950.2 141.9 1877.8C259.6 1739.6 376.6 1636.5 564.7 1582.4C690.9 1546.1 791 1590.3 879.3 1629.5C908.4 1642.4 936 1654.6 963.2 1663.4L986.5 1671C1053.4 1693 1129.3 1717.8 1211.7 1730C1325.8 1746.8 1428.9 1741.4 1527.1 1713.5C1663 1674.8 1794.3 1589.4 1928.1 1497.8C1968.5 1470.1 2006.9 1441.4 2044 1413.8C2087.6 1381.1 2128.9 1350.2 2167.2 1325.9C2267.5 1262.3 2357.7 1181.3 2453 1095.8C2571.8 989.2 2694.6 879 2844.7 797.3C2897.2 768.7 2945.8 746.6 2993.1 729.7C3069.4 702.6 3150.2 686.5 3226.4 672.1V671C3150.2 685.3 3069.4 701.5 2993 728.5C2945.5 745.5 2896.9 767.6 2844.3 796.3C2694.1 878.1 2571.3 988.2 2452.4 1094.9C2357.1 1180.5 2267 1261.3 2166.7 1324.9C2128.5 1349.2 2087.1 1380.1 2043.4 1412.8C2006.4 1440.6 1968.1 1469.2 1927.7 1496.8C1793.9 1588.5 1662.7 1673.8 1527 1712.3C1429.1 1740.2 1326 1745.6 1212.1 1728.7C1129.7 1716.7 1053.9 1691.8 987.1 1669.9C979.1 1667.3 971.4 1664.7 963.7 1662.3C936.6 1653.5 909 1641.3 879.9 1628.3C791.4 1589.2 691.1 1544.9 564.7 1581.2C476.8 1606.5 399.5 1644.3 328.3 1696.5C266.9 1741.6 209.1 1797.3 141.1 1877.1C79.3 1949.7 25.8 2036.2 -23.5 2127.8Z" fill="#CDE7F6"/>
<path d="M-24.8999 2127.5L-23.8999 2127.7C22.9001 2038.9 73.6001 1954.8 131.9 1883.4C248.9 1740 365.1 1633.5 552.1 1579.7C679.5 1543 779.9 1590.5 868.5 1632.4C897.2 1645.9 924.3 1658.6 951 1668.1L970.1 1674.8C1038.2 1699 1115.4 1726.5 1199.9 1740.3C1314.2 1759 1417.8 1754.3 1516.7 1726C1655.4 1686.3 1791.7 1594 1919.4 1502.9C1960.4 1473.6 1999.1 1443.4 2036.7 1414.3C2080.3 1380.2 2121.5 1348.2 2159.5 1322.8C2259.7 1256.2 2349.5 1172.4 2444.5 1083.8C2564.1 972.2 2687.6 856.9 2838.9 771.4C2891.5 741.7 2940.3 718.6 2988.2 700.9C3064.9 672.6 3146.3 655.3 3223.2 640.2V639.1C3146.3 654.2 3064.8 671.5 2988.1 699.7C2940.1 717.5 2891.2 740.6 2838.6 770.4C2687 855.9 2563.5 971.3 2444 1082.9C2348.9 1171.6 2259.2 1255.3 2159.2 1321.9C2121 1347.3 2079.8 1379.4 2036.1 1413.4C1998.6 1442.5 1959.9 1472.7 1918.9 1501.9C1791.3 1592.9 1655.1 1685.3 1516.6 1724.9C1417.9 1753.1 1314.4 1757.8 1200.3 1739.1C1115.9 1725.3 1038.7 1697.8 970.6 1673.7L951.6 1666.9C925 1657.5 897.8 1644.7 869.2 1631.2C780.4 1589.3 679.8 1541.9 551.9 1578.6C464.4 1603.8 387.3 1642.3 316.3 1696.4C255.6 1742.7 198.5 1800.2 131.1 1882.8C72.7001 1954.3 21.9001 2038.5 -24.8999 2127.5Z" fill="#CDE7F6"/>
<path d="M-26.5 2127.1L-25.6 2127.3C18.9 2041.2 66.9 1959.3 121.8 1889C237.9 1740.5 353.4 1630.5 539.2 1577.1C668 1540.1 768.8 1590.6 857.7 1635.1C886 1649.3 912.6 1662.7 938.8 1672.8C943.8 1674.6 948.7 1676.4 953.6 1678.4C1022.9 1704.9 1101.5 1735 1188.1 1750.6C1302.6 1771.2 1406.7 1767.2 1506.2 1738.6C1647.7 1697.8 1783.6 1602.3 1910.7 1507.9C1952.2 1477.1 1991.4 1445.4 2029.4 1414.6C2072.9 1379.5 2114 1346.3 2152 1319.9C2251.9 1250.2 2341.5 1163.5 2436.1 1071.7C2556.3 955.2 2680.6 834.8 2833.1 745.5C2885.8 714.7 2934.9 690.6 2983.3 672C3060.4 642.5 3142.4 624.4 3219.8 608.2V607.1C3142.4 623.2 3060.3 641.4 2983.2 670.9C2934.7 689.6 2885.5 713.6 2832.8 744.5C2680 833.8 2555.8 954.3 2435.6 1070.9C2340.8 1162.7 2251.4 1249.5 2151.5 1318.9C2113.5 1345.3 2072.4 1378.6 2028.8 1413.8C1990.9 1444.5 1951.6 1476.3 1910.2 1507C1783.2 1601.3 1647.4 1696.7 1506.2 1737.5C1406.8 1766.1 1303 1770 1188.5 1749.4C1102.1 1733.9 1023.5 1703.7 954.2 1677.2L939.4 1671.6C913.2 1661.6 886.6 1648.2 858.4 1634.1C769.4 1589.4 668.3 1538.8 539.2 1575.9C451.9 1601 375 1640.4 304.3 1696.3C244.2 1743.8 187.7 1803 121 1888.5C66 1958.9 18 2040.8 -26.5 2127.1Z" fill="#CDE7F6"/>
<path d="M-28.5 2126.6L-27.5 2126.8C14.7 2043.3 60.1 1963.7 111.8 1894.7C226.9 1740.9 341.5 1627.6 526.5 1574.4C656.6 1537 757.7 1590.7 846.9 1638.1C874.7 1652.8 900.9 1666.8 926.7 1677.4L937.1 1681.7C1007.7 1710.7 1087.7 1743.5 1176.3 1760.8C1291.2 1783.4 1395.6 1780.2 1495.8 1751.1C1639.7 1709.4 1780.9 1606.3 1902 1512.9C1944 1480.5 1983.7 1447.2 2022.1 1415.1C2065.5 1378.6 2106.5 1344.2 2144.4 1316.8C2244.2 1244.3 2333.4 1154.7 2427.9 1059.7C2548.7 938.2 2673.7 812.6 2827.4 719.6C2880.1 687.7 2929.5 662.7 2978.4 643.2C3055.9 612.5 3138.5 593.3 3216.6 576.3V575.2C3138.6 592.2 3055.9 611.3 2978.3 642.2C2929.3 661.7 2879.9 686.7 2827.2 718.6C2673.2 811.7 2548.2 937.4 2427.4 1058.9C2332.9 1153.9 2243.7 1243.4 2144 1315.9C2106.1 1343.3 2065 1377.8 2021.6 1414.2C1983.2 1446.4 1943.5 1479.7 1901.7 1512C1780.6 1605.3 1639.5 1708.3 1495.8 1750C1395.9 1779 1291.5 1782.2 1176.9 1759.7C1088.3 1742.5 1008.4 1709.6 937.8 1680.5L927.5 1676.3C901.6 1665.7 875.4 1651.8 847.7 1637C758.3 1589.5 656.9 1535.8 526.5 1573.3C439.4 1598.3 362.8 1638.5 292.4 1696.2C233 1745 177 1806 111.1 1894.1C59.2 1963.3 13.7 2042.9 -28.5 2126.6Z" fill="#CDE7F6"/>
<path d="M-30.7002 2126.1L-29.7002 2126.3C10.1998 2045.4 53.1998 1968.1 101.7 1900.4C215.7 1741.4 329.3 1624.8 513.7 1571.7C645 1534 746.5 1590.9 836.1 1641.1C863.4 1656.4 889.2 1670.8 914.6 1682.1L920.7 1684.7C992.5 1716.2 1073.8 1752 1164.5 1771.2C1279.6 1795.6 1384.6 1793.2 1485.4 1763.7C1631.6 1721 1772.6 1614.5 1893.3 1518C1935.8 1484 1975.9 1449.1 2014.8 1415.4C2058.1 1377.8 2099 1342.2 2136.7 1313.8C2236.5 1238.4 2325.5 1145.7 2419.6 1047.7C2541.2 921.2 2666.8 790.5 2821.7 693.6C2874.4 660.7 2924.1 634.8 2973.5 614.4C3051.4 582.4 3134.7 562.3 3213.3 544.4V543.2C3134.6 561.1 3051.3 581.4 2973.3 613.3C2923.9 633.7 2874.2 659.7 2821.3 692.7C2666.1 789.7 2540.5 920.5 2419 1047C2324.8 1145 2235.8 1237.6 2136.2 1312.9C2098.5 1341.4 2057.5 1376.9 2014.2 1414.6C1975.4 1448.2 1935.2 1483.1 1892.7 1517.1C1772.1 1613.5 1631.3 1719.9 1485.2 1762.6C1384.7 1792 1279.9 1794.5 1165 1770C1074.3 1750.8 992.9 1715.1 921.2 1683.6L915.3 1681C889.9 1669.8 864 1655.3 836.7 1640.1C747 1589.8 645.3 1532.8 513.7 1570.6C426.8 1595.6 350.4 1636.6 280.3 1696.1C221.3 1746.2 166.1 1809 100.9 1899.8C52.2998 1967.6 9.2998 2045 -30.7002 2126.1Z" fill="#CDE7F6"/>
<path d="M-33.1001 2125.4L-32.1001 2125.7C5.5999 2047.4 46.0999 1972.4 91.6999 1906C204.4 1742 317.1 1621.9 501 1569.1C633.5 1531 735.3 1591.1 825.1 1644.1C852 1660 877.5 1675 902.5 1686.8L904.1 1687.5C977.2 1721.6 1059.8 1760.3 1152.8 1781.6C1268.5 1807.9 1373.9 1806.2 1474.9 1776.3C1540.4 1757.1 1609.7 1723.3 1686.7 1672.7C1758.5 1625.7 1827 1570.7 1884.6 1523C1927.6 1487.4 1968.1 1451 2007.5 1415.7C2050.7 1376.9 2091.5 1340.3 2129.1 1310.7C2228.8 1232.4 2317.5 1136.9 2411.5 1035.7C2533.7 904.3 2659.9 768.4 2815.9 667.8C2868.8 633.7 2918.7 606.8 2968.6 585.6C3046.9 552.5 3130.8 531.3 3210 512.3V511.3C3130.7 530.1 3046.8 551.3 2968.4 584.5C2918.5 605.8 2868.4 632.7 2815.6 666.8C2659.3 767.5 2532.9 903.5 2410.8 1035C2316.8 1136.1 2228.1 1231.7 2128.6 1309.8C2090.9 1339.4 2050.1 1376.1 2006.9 1414.9C1967.6 1450.1 1927 1486.6 1884 1522.1C1754.6 1629.3 1615.4 1734.1 1474.9 1775.1C1374 1805 1268.8 1806.7 1153.3 1780.4C1060.3 1759.2 977.7 1720.5 904.7 1686.4L903.1 1685.7C878.1 1673.9 852.8 1658.9 825.8 1643.1C735.9 1589.9 633.9 1529.8 501 1567.9C414.2 1592.9 338.1 1634.7 268.3 1696C209.9 1747.4 155.1 1812 90.7999 1905.5C45.1999 1971.9 4.6999 2047 -33.1001 2125.4Z" fill="#CDE7F6"/>
<path d="M80.8001 1911.2C38.0001 1976.2 -0.199902 2048.9 -35.8999 2124.8L-34.7999 2125C0.800102 2049.3 39.0001 1976.6 81.7001 1911.7C178 1765.3 294 1622.2 488.3 1566.4C621.9 1528 724.1 1591.4 814.1 1647.1C840.7 1663.6 865.6 1679.1 890.3 1691.4C959.6 1725.8 1045.8 1768.7 1141 1791.9C1256.9 1820.2 1362.8 1819.1 1464.6 1788.8C1607.1 1746.9 1746.6 1638.7 1875.9 1528.1C1919.4 1490.8 1960.5 1452.8 2000.1 1416C2043.2 1376 2084.1 1338.2 2121.4 1307.7C2221 1226.5 2309.6 1128 2403.4 1023.9C2526.2 887.4 2653 746.4 2810.2 641.9C2863.1 606.7 2913.3 579 2963.7 556.8C3042.3 522.5 3126.8 500.2 3206.7 480.4V479.3C3126.8 499.1 3042.2 521.3 2963.5 555.7C2913.1 577.9 2862.8 605.7 2809.8 640.9C2652.4 745.5 2525.4 886.6 2402.7 1023.1C2308.9 1127.4 2220.4 1225.7 2120.9 1306.9C2083.4 1337.4 2042.7 1375.2 1999.6 1415.2C1959.8 1451.9 1918.8 1490 1875.3 1527.2C1746 1637.8 1606.9 1745.8 1464.5 1787.6C1362.9 1817.9 1257.3 1818.9 1141.5 1790.7C1046.4 1767.4 960.3 1724.7 891.1 1690.3C866.4 1678 841.4 1662.5 814.9 1646.1C724.6 1590.2 622.4 1526.8 488.2 1565.3C401.6 1590.2 325.8 1632.9 256.3 1695.9C198.2 1748.6 144.1 1814.9 80.8001 1911.2Z" fill="#CDE7F6"/>
<path d="M70.8001 1916.8C30.7001 1980.3 -5.1999 2050.8 -38.8999 2124L-37.7999 2124.2C-4.19991 2051.1 31.6001 1980.7 71.6001 1917.3C166.7 1766.6 281.5 1619.5 475.5 1563.7C610.5 1525 712.8 1591.6 803.1 1650.3C829.3 1667.2 853.9 1683.2 878.2 1696.1C943.1 1730.1 1031.9 1776.8 1129.3 1802.1C1245.4 1832.3 1351.6 1832.1 1454.2 1801.3C1598.5 1758.6 1738 1647.2 1867.2 1533C1911.2 1494.2 1952.8 1454.5 1992.8 1416.2C2035.9 1375 2076.6 1336.2 2113.8 1304.7C2213.4 1220.6 2301.8 1119.3 2395.3 1011.9C2518.7 870.5 2646.2 724.2 2804.4 616C2857.5 579.8 2908 550.9 2958.8 528C3037.8 492.4 3123.1 469.2 3203.5 448.5V447.3C3123.1 468.1 3037.7 491.4 2958.7 526.9C2907.7 550 2857.2 578.7 2804.2 615C2645.6 723.3 2518 869.7 2394.6 1011.2C2301 1118.5 2212.7 1219.8 2113.2 1303.8C2075.9 1335.4 2035.2 1374.2 1992.2 1415.4C1952.1 1453.7 1910.6 1493.4 1866.6 1532.3C1737.5 1646.2 1598.3 1757.5 1454.1 1800.2C1351.8 1830.9 1245.7 1831.1 1129.7 1801C1032.5 1775.7 943.7 1729 878.9 1695C854.6 1682.2 830 1666.1 803.9 1649.2C713.4 1590.4 610.9 1523.7 475.4 1562.6C389.1 1587.4 313.4 1631.1 244.2 1695.9C186.6 1749.9 133.1 1818 70.8001 1916.8Z" fill="#CDE7F6"/>
<path d="M60.7 1922.5C23.3 1984.4 -10.5 2052.5 -42 2123.2L-41 2123.5C-9.4 2052.9 24.2 1984.8 61.6 1923C155.4 1767.9 268.9 1616.8 462.8 1561.1C598.9 1522 701.5 1591.8 792.1 1653.4C817.9 1670.8 842.2 1687.4 866 1700.7C943 1743.4 1025.7 1787.2 1117.5 1812.4C1233.8 1844.5 1340.6 1845 1443.7 1813.9C1510.4 1794 1580.5 1757.8 1658.2 1703C1733.6 1649.8 1804.8 1587 1858.5 1538.1C1903 1497.6 1945 1456.2 1985.6 1416.3C2028.4 1374.1 2069 1334.1 2106.2 1301.6C2205.7 1214.7 2293.9 1110.4 2387.4 1000C2511.2 853.6 2639.4 702.1 2798.7 590.1C2851.8 552.8 2902.6 523.1 2953.9 499.2C3033.3 462.4 3119.1 438.2 3200.2 416.5V415.4C3119.1 437.1 3033.2 461.3 2953.8 498.1C2902.4 522 2851.6 551.7 2798.4 589.2C2638.8 701.3 2510.6 852.8 2386.6 999.3C2293.3 1109.7 2205 1214 2105.6 1300.8C2068.4 1333.3 2027.9 1373.2 1984.8 1415.6C1944.3 1455.5 1902.4 1496.7 1857.9 1537.3C1735 1649.1 1589.9 1769.2 1443.7 1812.8C1340.7 1843.7 1234.2 1843.3 1117.9 1811.4C1026.3 1786.1 943.6 1742.3 866.8 1699.6C842.9 1686.4 818.6 1669.9 792.9 1652.4C702 1590.7 599.4 1520.8 462.7 1560C376.4 1584.7 301 1629.1 232.2 1695.8C174.9 1751.2 122 1821.2 60.7 1922.5Z" fill="#CDE7F6"/>
<path d="M50.6 1928.2C15.7 1988.5 -15.9 2054.3 -45.5 2122.4L-44.5 2122.6C-14.9 2054.6 16.7 1988.8 51.6 1928.6C144 1769.2 256.2 1614.1 450 1558.5C587.4 1519.1 690.3 1592.1 781.1 1656.5C806.4 1674.6 830.3 1691.6 853.9 1705.4C930 1749.9 1012.1 1795.5 1105.7 1822.7C1222.3 1856.7 1329.4 1857.9 1433.3 1826.4C1581.4 1782 1726.9 1658.3 1849.8 1543.1C1894.8 1500.9 1937.2 1458 1978.2 1416.4C2021.1 1373 2061.5 1332.1 2098.5 1298.6C2198 1208.9 2286.2 1101.6 2379.5 988.1C2503.9 836.6 2632.6 680 2793 564.2C2846.1 525.8 2897.2 495.2 2949 470.4C3028.9 432.4 3115.2 407.1 3196.9 384.5V383.5C3115.2 406.1 3028.8 431.3 2948.9 469.3C2897 494 2845.9 524.8 2792.6 563.3C2632.1 679.2 2503.3 835.9 2378.8 987.4C2285.5 1100.9 2197.4 1208.1 2098 1297.8C2060.9 1331.3 2020.5 1372.3 1977.7 1415.6C1936.6 1457.2 1894.3 1500.2 1849.2 1542.4C1726.5 1657.4 1581.1 1781 1433.3 1825.3C1329.6 1856.8 1222.7 1855.6 1106.3 1821.6C1012.9 1794.4 930.8 1748.8 854.7 1704.3C831.2 1690.5 807.2 1673.5 781.9 1655.5C691 1591 587.9 1517.8 450 1557.3C363.9 1582.1 288.7 1627.4 220.2 1695.7C163.2 1752.6 110.9 1824.3 50.6 1928.2Z" fill="#CDE7F6"/>
<path d="M40.4998 1933.9C7.9998 1992.4 -21.5002 2055.9 -49.2002 2121.4C-48.8878 2121.56 -48.5489 2121.66 -48.2002 2121.7C-20.5002 2056.2 8.9998 1992.7 41.4998 1934.2C132.5 1770.5 243.4 1611.4 437.3 1555.8C575.8 1516.1 678.9 1592.5 769.9 1659.8C794.9 1678.3 818.6 1695.8 841.8 1710C913.8 1754.2 998.6 1803.9 1093.9 1833.1C1210.7 1868.9 1318.4 1870.8 1422.9 1839.1C1572.4 1793.8 1718.2 1666.6 1841.1 1548.2C1886.6 1504.2 1929.5 1459.6 1971 1416.5C2012.5 1373.4 2054.1 1330 2090.9 1295.6C2190.4 1203 2278.4 1092.8 2371.6 976.2C2496.6 819.7 2625.8 658 2787.3 538.3C2840.5 498.9 2891.9 467.2 2944.2 441.6C3024.3 402.4 3111.4 376.2 3193.6 352.6V351.5C3111.3 375.1 3024.2 401.3 2944 440.5C2891.6 466.3 2840.2 497.9 2786.8 537.4C2625.2 657.1 2495.9 819 2370.9 975.5C2277.7 1092.1 2189.7 1202.2 2090.4 1294.8C2053.4 1329.2 2013.1 1371.3 1970.3 1415.7C1927.5 1460.1 1886 1503.5 1840.5 1547.4C1717.8 1665.8 1572.2 1792.8 1422.9 1837.9C1318.5 1869.7 1211.2 1867.7 1094.5 1831.9C999.4 1802.7 914.5 1753.2 842.7 1709C819.4 1694.7 795.7 1677.2 770.8 1658.8C679.6 1591.3 576.3 1514.8 437.3 1554.7C351.2 1579.3 276.3 1625.5 208.1 1695.6C151.3 1754 99.7998 1827.5 40.4998 1933.9Z" fill="#CDE7F6"/>
<path d="M30.4998 1939.6C0.199802 1996.3 -27.3002 2057.5 -53.2002 2120.5L-52.2002 2120.7C-26.3002 2057.8 1.1998 1996.7 31.4998 1939.9C121 1771.9 230.6 1608.8 424.5 1553.1C564.2 1513.1 667.6 1592.7 758.8 1663C783.4 1682 806.7 1700 829.6 1714.7C906.2 1763.9 989.8 1813.6 1082.2 1843.4C1136.6 1860.9 1190.3 1870.9 1241.5 1873.2C1299.28 1875.8 1357.08 1868.49 1412.4 1851.6C1563.5 1805.6 1709.5 1675 1832.4 1553.3C1878.4 1507.6 1921.7 1461.2 1963.6 1416.5C2005.5 1371.8 2046.5 1327.9 2083.4 1292.6C2182.7 1197.1 2270.7 1084 2363.8 964.2C2489.3 802.8 2619.1 635.8 2781.5 512.4C2834.9 471.8 2886.5 439.3 2939.2 412.8C3019.7 372.4 3107.5 345.1 3190.4 320.6V319.6C3107.4 344.1 3019.7 371.3 2939 411.7C2886.2 438.3 2834.5 470.9 2781.1 511.5C2618.5 635 2488.6 802.2 2363 963.6C2270 1083.4 2182.2 1196.4 2082.8 1291.8C2045.9 1327.2 2005.7 1370.2 1963 1415.8C1920.3 1461.4 1877.9 1506.8 1831.7 1552.5C1709.1 1674.1 1563.2 1804.6 1412.5 1850.4C1307.5 1882.6 1199.7 1879.9 1082.7 1842.3C990.6 1812.5 907 1762.9 830.6 1713.6C807.6 1698.9 784.3 1681 759.6 1662.1C668.3 1591.6 564.7 1511.8 424.5 1552C338.5 1576.6 263.8 1623.6 196 1695.6C140.3 1754.6 87.6998 1832.2 30.4998 1939.6Z" fill="#CDE7F6"/>
<path d="M20.5001 1945.3C-7.59991 2000.2 -33.2999 2059 -57.3999 2119.5L-56.4999 2119.7C-32.2999 2059.3 -6.5999 2000.5 21.4001 1945.6C109.4 1773.3 217.7 1606.1 411.7 1550.5C552.6 1510.1 656.2 1593.1 747.6 1666.2C772 1685.7 794.9 1704.1 817.5 1719.4C893.4 1770.4 976.4 1821.9 1070.4 1853.7C1124.9 1872.1 1178.6 1882.8 1230.3 1885.4C1288.34 1888.43 1346.46 1881.22 1402 1864.1C1470.1 1843.3 1541.3 1803.8 1620 1743.4C1680.6 1696.8 1745.3 1638 1823.7 1558.2C1870.3 1510.8 1914.1 1462.9 1956.3 1416.5C1998.5 1370.1 2039 1325.8 2075.6 1289.5C2175.1 1191.2 2263 1075.2 2355.9 952.4C2482.1 785.9 2612.3 613.8 2775.7 486.5C2829.2 444.9 2881.1 411.4 2934.3 383.9C3015.3 342.4 3103.5 314.2 3187.1 288.7V287.6C3103.5 313 3015.1 341.3 2934.1 382.9C2880.8 410.3 2828.9 443.9 2775.4 485.6C2611.6 613 2481.2 785.2 2355.1 951.8C2262.2 1074.6 2174.4 1190.5 2075 1288.7C2038.3 1325.1 1998.1 1369.1 1955.7 1415.7C1913.3 1462.3 1869.5 1510.2 1823 1557.5C1700.1 1682.4 1554 1816.5 1402 1863C1296.3 1895.5 1188 1892.1 1071 1852.6C977.1 1820.9 894 1769.3 818.2 1718.3C795.8 1703.1 772.7 1684.7 748.4 1665.3C656.8 1592 553.1 1508.8 411.7 1549.3C325.8 1574 251.2 1621.8 183.8 1695.6C128.5 1756.1 76.6001 1835.4 20.5001 1945.3Z" fill="#CDE7F6"/>
<path d="M10.4 1950.9C-15.6 2004 -39.5 2060.5 -62 2118.4L-61 2118.7C-38.4 2060.7 -14.6 2004.3 11.4 1951.2C93.7 1783.1 204.1 1603.7 399 1547.8C541.1 1507.1 644.9 1593.4 736.5 1669.6C760.4 1689.5 783 1708.3 805.5 1724C876.9 1774.3 962.9 1830.2 1058.6 1864C1113.2 1883.3 1167.1 1894.6 1219 1897.6C1277.33 1901.02 1335.79 1893.9 1391.6 1876.6C1460 1855.6 1531.6 1815.3 1610.4 1753.5C1671.6 1705.5 1736.6 1645.1 1814.9 1563.4C1862.1 1514.1 1906.3 1464.4 1949 1416.4C1991.7 1368.4 2031.5 1323.7 2068.1 1286.5C2167.5 1185.3 2255.3 1066.4 2348.1 940.6C2474.7 769 2605.6 591.7 2770.1 460.6C2823.6 418 2875.8 383.4 2929.4 355.2C3010.8 312.4 3099.7 283.1 3183.9 256.8L3183.7 255.7C3099.6 282 3010.6 311.3 2929.2 354.1C2875.3 382.5 2823.1 417 2769.4 459.8C2604.9 590.9 2473.9 768.4 2347.3 939.9C2254.5 1065.8 2166.7 1184.6 2067.3 1285.8C2030.8 1323 1990.7 1368 1948.3 1415.6C1905.9 1463.2 1861.3 1513.4 1814.3 1562.6C1698.5 1683.4 1545.9 1828 1391.6 1875.5C1285.2 1908.5 1176.5 1904.3 1059.2 1862.9C963.6 1829.2 877.6 1773.2 806.2 1723C783.9 1707.4 761.2 1688.5 737.2 1668.6C645.5 1592.3 541.5 1505.9 398.9 1546.7C313.2 1571.3 238.8 1619.9 171.7 1695.5C116.5 1757.6 65.3 1838.7 10.4 1950.9Z" fill="#CDE7F6"/>
<path d="M0.299896 1956.6C-23.7001 2007.8 -45.8001 2061.9 -66.6001 2117.3L-65.6001 2117.5C-44.7001 2062.1 -22.6001 2008.1 1.2999 1956.9C82.0999 1784.7 191 1601.1 386.2 1545.1C529.2 1504.3 633 1593.6 724.6 1672.4C748.5 1693.1 771.1 1712.5 793.3 1728.7C859.4 1777.3 947.9 1837.9 1046.9 1874.3C1101.5 1894.5 1155.6 1906.3 1207.7 1909.7C1266.3 1913.64 1325.13 1906.69 1381.2 1889.2C1537.2 1841 1690.2 1692.4 1806.1 1568.4C1853.8 1517.4 1898.6 1465.9 1941.8 1416.1C1985 1366.3 2024 1321.5 2060.4 1283.5C2159.9 1179.5 2247.6 1057.6 2340.4 928.7C2467.5 752.2 2598.9 569.6 2764.3 434.7C2818 391 2870.4 355.5 2924.6 326.3C3006.3 282.4 3095.8 252.1 3180.5 224.8V223.7C3095.6 251 3006.1 281.3 2924.2 325.3C2870 354.6 2817.5 390.1 2763.7 433.9C2598.2 568.8 2466.7 751.5 2339.5 928.2C2246.8 1057.1 2159.2 1178.8 2059.7 1282.7C2023.2 1320.9 1983.4 1366.8 1941 1415.5C1898.6 1464.2 1853.1 1516.7 1805.5 1567.6C1689.7 1691.5 1536.7 1839.9 1381.1 1888.1C1275.7 1920.9 1163.4 1916 1047.5 1873.2C948.6 1836.8 860.2 1776.3 794.1 1727.7C771.8 1711.5 749.3 1692 725.4 1671.5C633.6 1592.6 529.6 1503 386.2 1544C300.5 1568.6 226.3 1618.2 159.5 1695.4C104.7 1759.1 53.9999 1842.1 0.299896 1956.6Z" fill="#CDE7F6"/>
<path d="M-9.7001 1962.2C-31.9001 2011.5 -52.3001 2063.3 -71.6001 2116.2L-70.6001 2116.4C-51.2001 2063.5 -30.8001 2011.8 -8.7001 1962.5C70.4999 1786.3 177.8 1598.6 373.5 1542.5C517.6 1501.3 621.6 1594.1 713.4 1675.9C737 1696.9 759.3 1716.7 781.1 1733.3C846.8 1783.6 934.9 1846.2 1035.1 1884.6C1089.8 1905.7 1144.1 1918.2 1196.4 1922C1255.29 1926.27 1314.45 1919.42 1370.8 1901.8C1528 1852.8 1681.4 1700.5 1797.5 1573.4C1845.7 1520.6 1890.9 1467.4 1934.6 1415.9C1976.7 1366.3 2016.5 1319.4 2052.8 1280.4C2152.3 1173.6 2240 1048.9 2332.7 916.9C2460.2 735.3 2592.2 547.5 2758.6 408.8C2812.3 364.1 2865 327.6 2919.6 297.5C3001.8 252.3 3088.3 222.3 3177.3 192.9L3177.1 191.8C3088.2 221.1 3001.6 251.2 2919.3 296.4C2864.5 326.6 2811.8 363.1 2757.9 408C2591.5 546.7 2459.5 734.6 2331.8 916.3C2239.1 1048.3 2151.6 1173 2052.1 1279.7C2015.8 1318.7 1975.9 1365.6 1933.7 1415.3C1890.1 1466.7 1845 1519.9 1796.8 1572.7C1680.8 1699.7 1527.6 1851.8 1370.7 1900.7C1264.6 1933.8 1151.9 1928 1035.7 1883.5C935.7 1845.1 847.5 1782.5 782 1732.4C760.1 1715.8 737.8 1695.9 714.2 1674.9C622.4 1592.9 518.2 1499.9 373.4 1541.4C287.8 1565.9 213.9 1616.3 147.4 1695.5C92.6999 1760.6 42.7999 1845.4 -9.7001 1962.2Z" fill="#CDE7F6"/>
<path d="M-19.8002 1968C-40.1002 2015.2 -58.9002 2064.6 -76.7002 2115L-75.7002 2115.2C-57.9002 2064.8 -39.1002 2015.5 -18.8002 1968.2C58.7998 1787.9 164.6 1596 360.7 1539.8C506.1 1498.3 610.2 1594.5 702.3 1679.3C725.5 1700.7 747.3 1721 769 1737.9C834.2 1789.8 921.9 1854.5 1023.3 1895C1078.1 1916.8 1132.6 1930 1185.1 1934.1C1244.23 1938.91 1303.73 1932.18 1360.3 1914.3C1518.8 1864.7 1672.6 1708.7 1788.8 1578.4C1837.5 1523.8 1883.2 1468.8 1927.3 1415.7C1969.3 1365 2009 1317.3 2045.2 1277.4C2144.7 1167.8 2232.4 1040.2 2325 905C2453.1 718.4 2585.5 525.4 2752.8 382.9C2806.7 337 2859.7 299.7 2914.8 268.7C2997.4 222.3 3084.5 191.3 3174 160.9V159.8C3084.4 190.2 2997.2 221.3 2914.5 267.7C2859.3 298.6 2806.3 336.1 2752.3 382.1C2584.8 524.7 2452.4 717.8 2324.2 904.5C2231.5 1039.7 2144 1167.2 2044.6 1276.7C2008.4 1316.6 1968.7 1364.4 1926.6 1415.1C1882.5 1468.2 1836.8 1523.2 1788.1 1577.8C1672 1707.9 1518.5 1863.6 1360.3 1913.2C1253.6 1946.7 1140.4 1940.3 1024.1 1893.8C922.7 1853.4 834.9 1788.8 770 1737C748.3 1720 726.4 1699.8 703.2 1678.4C656.7 1635.4 608.6 1591 552.7 1561.4C488.6 1527.5 425.8 1520.1 360.7 1538.7C275.2 1563.2 201.5 1614.4 135.4 1695.4C80.7998 1762.2 31.4998 1848.8 -19.8002 1968Z" fill="#CDE7F6"/>
<path d="M-29.8002 1973.6C-48.4002 2018.8 -65.7002 2065.9 -82.2002 2113.8L-81.2002 2114C-64.8002 2066.1 -47.5002 2019.1 -28.9002 1973.9C42.6998 1800.3 150.2 1593.8 348 1537.2C494.6 1495.2 599 1594.8 691.1 1682.8C714 1704.6 735.6 1725.2 756.9 1742.6C816.5 1791.9 907.8 1862.4 1011.6 1905.2C1066.4 1928 1121.1 1941.8 1173.7 1946.4C1233.18 1951.53 1293.09 1944.86 1350 1926.8C1419.6 1904.9 1492.3 1861.4 1572.3 1793.8C1635.4 1740.5 1701.5 1673.6 1780.1 1583.5C1829.3 1527.1 1875.4 1470.3 1920 1415.4C1962 1363.7 2001.5 1315.1 2037.5 1274.3C2137.1 1162 2224.4 1031.6 2316.9 893.6C2445.6 701.6 2578.5 503.2 2747.1 357C2799.9 311 2854.6 271.6 2909.8 239.9C2992.8 192.4 3080.5 160.3 3170.7 129V127.9C3080.5 159.2 2992.6 191.3 2909.6 238.9C2854.3 270.6 2799.5 310.1 2746.5 356.2C2577.8 502.4 2444.9 701 2316.2 893C2223.7 1031.1 2136.4 1161.5 2036.9 1273.7C2000.8 1314.4 1961.3 1363.1 1919.3 1414.8C1874.7 1469.7 1828.6 1526.4 1779.4 1582.8C1663.2 1716.1 1509.2 1875.5 1350 1925.7C1242.5 1959.7 1128.9 1952.4 1012.2 1904.1C908.6 1861.2 817.4 1790.9 757.8 1741.7C736.5 1724.2 715 1703.6 692.1 1681.8C645.5 1637.4 597.3 1591.5 541.1 1560.6C476.8 1525.3 413.6 1517.3 348.1 1536C262.6 1560.5 189 1612.6 123.3 1695.3C68.7998 1763.9 20.1998 1852.2 -29.8002 1973.6Z" fill="#CDE7F6"/>
<path d="M-39.8998 1979.3C-56.8998 2022.4 -72.7998 2067.1 -87.7998 2112.5L-86.7998 2112.8C-71.6998 2067.3 -55.7998 2022.7 -38.7998 1979.5C31.1002 1802.2 136.8 1591.3 335.2 1534.6C482.9 1492.3 587.5 1595.4 680 1686.2C702.5 1708.5 723.8 1729.5 744.8 1747.3C803.9 1798 894.9 1870.6 999.8 1915.5C1054.8 1939.2 1109.6 1953.6 1162.5 1958.6C1222.23 1964.22 1282.48 1957.65 1339.6 1939.3C1409.6 1917.2 1482.5 1872.9 1562.7 1803.9C1626.3 1749.3 1692.6 1680.8 1771.4 1588.4C1821.1 1530.2 1867.8 1471.6 1912.8 1415C1954.5 1362.4 1994 1312.9 2029.9 1271.4C2129.5 1156.2 2216.9 1022.9 2309.4 881.6C2438.5 684.7 2572 481.1 2741.4 331.1C2794.3 284 2849.4 243.6 2905 211.1C2988.2 162.3 3076.6 129.4 3167.4 97.0999V95.8999C3076.4 128.3 2988 161.3 2904.6 210C2848.9 242.6 2793.8 283.1 2740.7 330.3C2571.2 480.4 2437.7 684.1 2308.5 881.1C2216.1 1022.3 2128.6 1155.6 2029.1 1270.7C1993.2 1312.2 1953.8 1361.8 1912 1414.4C1867 1471 1820.4 1529.5 1770.7 1587.8C1654.1 1724.3 1499.8 1887.4 1339.4 1938.3C1231.3 1972.6 1117.3 1964.6 1000.5 1914.4C895.7 1869.5 804.7 1797 745.6 1746.3C724.6 1728.5 703.3 1707.5 680.8 1685.3C636.3 1641.5 586 1591.9 529.5 1559.8C464.9 1523.2 401.2 1514.5 335.2 1533.4C249.7 1557.8 176.4 1610.9 111.1 1695.4C56.8002 1765.5 8.9002 1855.7 -39.8998 1979.3Z" fill="#CDE7F6"/>
<path d="M-50.0001 1985C-65.5001 2026 -79.9001 2068.3 -93.6001 2111.2L-92.6001 2111.5C-78.8001 2068.5 -64.4001 2026.2 -48.9001 1985.2C19.4999 1804 123.6 1588.8 322.4 1531.9C471.3 1489.3 576.2 1595.8 668.6 1689.8C690.9 1712.4 711.9 1733.7 732.6 1751.9C825.7 1834.4 906.9 1889.7 988 1925.9C1043.3 1950.3 1098.2 1965.4 1151.2 1970.6C1211.15 1976.72 1271.73 1970.36 1329.1 1951.9C1399.4 1929.5 1472.7 1884.5 1553.2 1814C1617.2 1758 1683.8 1688 1762.7 1593.5C1812.6 1533.8 1859.4 1473.8 1904.6 1415.7C1946.5 1361.8 1986.2 1311 2022.2 1268.3C2121.5 1150.6 2208.7 1014.7 2301 871C2430.8 668.6 2565 459.3 2735.6 305.2C2788.8 257 2844.1 215.6 2900 182.3C2983.8 132.4 3072.7 98.3999 3164.2 65.0999L3164 63.8999C3072.6 97.1999 2983.5 131.3 2899.7 181.2C2843.8 214.7 2788.3 256.1 2734.9 304.4C2564.2 458.7 2429.9 668 2300.1 870.4C2207.8 1014.2 2120.6 1150 2021.5 1267.6C1985.4 1310.3 1945.7 1361.2 1903.7 1415.1C1858.5 1473.2 1811.8 1533.2 1761.9 1592.8C1645.2 1732.5 1490.5 1899.3 1329 1950.8C1220.6 1985.4 1106.1 1976.6 988.6 1924.8C907.6 1888.6 826.5 1833.4 733.5 1751C712.8 1732.8 691.8 1711.5 669.6 1688.9C625.1 1643.7 574.6 1592.4 517.9 1559.1C453 1521 389.1 1511.7 322.4 1530.8C237 1555.1 163.9 1609 98.8999 1695.3C44.7999 1767.2 -2.4001 1859.2 -50.0001 1985Z" fill="#CDE7F6"/>
<path d="M-60.0002 1990.7C-74.0002 2029.5 -87.2002 2069.5 -99.7002 2109.9L-98.7002 2110.2C-86.1002 2069.7 -73.0002 2029.7 -58.9002 1990.8C40.2998 1716.1 154 1573.8 309.7 1529.2C459.8 1486.3 564.8 1596.4 657.4 1693.4C679.3 1716.4 700 1738.1 720.5 1756.7C813.1 1841.6 894.5 1898.5 976.3 1936.2C1031.6 1961.5 1086.6 1977.2 1139.9 1982.9C1200.13 1989.36 1261.05 1983.1 1318.7 1964.5C1389.2 1941.9 1462.9 1895.9 1543.5 1824.1C1607.8 1766.8 1674.7 1695.2 1754 1598.6C1804.3 1537.1 1851.4 1475.4 1896.9 1415.7C1939 1360.7 1978.6 1308.9 2014.6 1265.3C2114.2 1144.6 2201.5 1005.6 2293.9 858.5C2424.1 651.3 2558.5 437.2 2729.8 279.4C2783.3 230 2838.9 187.6 2895.2 153.4C2979.3 102.4 3068.8 67.4 3160.8 33.1V32C3068.6 66.3 2979.1 101.3 2894.8 152.5C2838.4 186.7 2782.7 229.1 2729.2 278.6C2557.8 436.6 2423.2 650.8 2293 858C2200.7 1005.1 2113.4 1144 2013.8 1264.7C1977.8 1308.2 1938.1 1360.1 1896.2 1415C1850.6 1474.7 1803.4 1536.5 1753.1 1598C1635.9 1740.8 1480.7 1911.4 1318.6 1963.4C1209.4 1998.4 1094.4 1988.9 976.9 1935.1C895.1 1897.5 814 1840.5 721.3 1755.7C701 1737.1 680.2 1715.5 658.4 1692.4C613.8 1645.8 563.3 1592.8 506.4 1558.3C441.1 1518.8 376.8 1508.9 309.7 1528.1C224.3 1552.5 151.4 1607.2 86.7998 1695.4C33.5998 1767.9 -14.4002 1864.5 -60.0002 1990.7Z" fill="#CDE7F6"/>
<path d="M-6.7 1837.6C-45.5 1920.6 -77.4 2012.9 -106 2108.6L-104.9 2108.8C-23.4 1836.4 86.7 1586.6 296.9 1526.5C448.2 1483.4 553.4 1596.8 646.2 1696.9C667.8 1720.3 688.3 1742.3 708.3 1761.3C802 1849.9 888.2 1911.6 971.8 1949.9C1026 1974.8 1080.1 1990.1 1132.7 1995.6C1191.88 2001.71 1251.69 1995.41 1308.3 1977.1C1520 1908.8 1725.8 1634.1 1891.3 1413.3C1932.5 1358.2 1971.5 1306.2 2007 1262.2C2106.9 1138.7 2194.4 996.5 2287 846C2457 569.7 2632.8 284 2890.3 124.7C2974.8 72.3 3064.9 36.4 3157.6 1.1V0C3064.8 35.4 2974.6 71.3 2889.9 123.7C2632.2 283.1 2456.3 569 2286.2 845.5C2193.6 996 2106.2 1138.1 2006.3 1261.6C1970.8 1305.6 1931.8 1357.6 1890.5 1412.7C1725.2 1633.4 1519.6 1907.9 1308.2 1975.9C1060.3 2055.8 847.7 1891.2 709.2 1760.4C689.2 1741.4 668.8 1719.3 647.2 1696C602.6 1647.9 552 1593.3 494.9 1557.6C429.4 1516.6 364.7 1506.1 297 1525.4C232.2 1544 172.8 1582.1 120.6 1638.7C73.7 1689.3 32.1 1754.3 -6.7 1837.6Z" fill="#CDE7F6"/>
</g>
<defs>
<clipPath id="clip0">
<rect width="3107" height="2129" fill="white"/>
</clipPath>
</defs>
</svg>